ffmpeg version 4.3.1 Copyright (c) 2000-2020 the FFmpeg developers
  built with gcc 9.3.0 (Alpine 9.3.0)
  configuration: --prefix=/usr --enable-avresample --enable-avfilter --enable-gnutls --enable-gpl --enable-libass --enable-libmp3lame --enable-libvorbis --enable-libvpx --enable-libxvid --enable-libx264 --enable-libx265 --enable-libtheora --enable-libv4l2 --enable-libdav1d --enable-postproc --enable-pic --enable-pthreads --enable-shared --enable-libxcb --enable-libssh --disable-stripping --disable-static --disable-librtmp --enable-vaapi --enable-vdpau --enable-libopus --enable-libaom --disable-debug
  libavutil      56. 51.100 / 56. 51.100
  libavcodec     58. 91.100 / 58. 91.100
  libavformat    58. 45.100 / 58. 45.100
  libavdevice    58. 10.100 / 58. 10.100
  libavfilter     7. 85.100 /  7. 85.100
  libavresample   4.  0.  0 /  4.  0.  0
  libswscale      5.  7.100 /  5.  7.100
  libswresample   3.  7.100 /  3.  7.100
  libpostproc    55.  7.100 / 55.  7.100
Input #0, image2pipe, from './tmp/gource.pipe':
  Duration: N/A, bitrate: N/A
    Stream #0:0: Video: ppm, rgb24, 1750x970, 60 fps, 60 tbr, 60 tbn, 60 tbc
Input #1, image2pipe, from './tmp/overlay.pipe':
  Duration: N/A, bitrate: N/A
    Stream #1:0: Video: ppm, rgb24, 1920x1080, 60 fps, 60 tbr, 60 tbn, 60 tbc
Stream mapping:
  Stream #0:0 (ppm) -> pad
  Stream #1:0 (ppm) -> scale
  Stream #1:0 (ppm) -> scale
  vstack -> Stream #0:0 (libx264)
Press [q] to stop, [?] for help
[image2pipe @ 0x7f9cda6a31c0] Thread message queue blocking; consider raising the thread_queue_size option (current value: 8)
[image2pipe @ 0x7f9cd8a65080] Thread message queue blocking; consider raising the thread_queue_size option (current value: 8)
[libx264 @ 0x55d9dacdb740] using cpu capabilities: MMX2 SSE2Fast SSSE3 SSE4.2 AVX FMA3 BMI2 AVX2 AVX512
[libx264 @ 0x55d9dacdb740] profile High, level 5.1, 4:2:0, 8-bit
[libx264 @ 0x55d9dacdb740] 264 - core 157 - H.264/MPEG-4 AVC codec - Copyleft 2003-2018 - http://www.videolan.org/x264.html - options: cabac=1 ref=3 deblock=1:0:0 analyse=0x3:0x113 me=hex subme=7 psy=1 psy_rd=1.00:0.00 mixed_ref=1 me_range=16 chroma_me=1 trellis=1 8x8dct=1 cqm=0 deadzone=21,11 fast_pskip=1 chroma_qp_offset=-2 threads=3 lookahead_threads=1 sliced_threads=0 nr=0 decimate=1 interlaced=0 bluray_compat=0 constrained_intra=0 bframes=0 weightp=2 keyint=250 keyint_min=25 scenecut=40 intra_refresh=0 rc_lookahead=40 rc=crf mbtree=1 crf=23.0 qcomp=0.60 qpmin=0 qpmax=69 qpstep=4 ip_ratio=1.40 aq=1:1.00
Output #0, mp4, to './output/gource.mp4':
  Metadata:
    encoder         : Lavf58.45.100
    Stream #0:0: Video: h264 (libx264) (avc1 / 0x31637661), yuv420p, 1920x1080, q=-1--1, 60 fps, 15360 tbn, 60 tbc (default)
    Metadata:
      encoder         : Lavc58.91.100 libx264
    Side data:
      cpb: bitrate max/min/avg: 0/0/0 buffer size: 0 vbv_delay: N/A
frame=   19 fps=0.0 q=0.0 size=       0kB time=00:00:00.00 bitrate=N/A speed=   0x    frame=   34 fps= 33 q=0.0 size=       0kB time=00:00:00.00 bitrate=N/A speed=   0x    frame=   44 fps= 28 q=0.0 size=       0kB time=00:00:00.00 bitrate=N/A speed=   0x    frame=   55 fps= 27 q=31.0 size=       0kB time=00:00:00.16 bitrate=   2.3kbits/s speed=0.081x    frame=   66 fps= 26 q=31.0 size=       0kB time=00:00:00.35 bitrate=   1.1kbits/s speed=0.136x    frame=   78 fps= 25 q=31.0 size=       0kB time=00:00:00.55 bitrate=   0.7kbits/s speed=0.179x    frame=   89 fps= 25 q=31.0 size=       0kB time=00:00:00.73 bitrate=   0.5kbits/s speed=0.202x    frame=  101 fps= 24 q=31.0 size=       0kB time=00:00:00.93 bitrate=   0.4kbits/s speed=0.225x    frame=  112 fps= 24 q=31.0 size=       0kB time=00:00:01.11 bitrate=   0.3kbits/s speed=0.239x    frame=  124 fps= 24 q=31.0 size=       0kB time=00:00:01.31 bitrate=   0.3kbits/s speed=0.252x    frame=  135 fps= 24 q=31.0 size=       0kB time=00:00:01.50 bitrate=   0.3kbits/s speed=0.262x    frame=  146 fps= 23 q=31.0 size=       0kB time=00:00:01.68 bitrate=   0.2kbits/s speed=0.269x    frame=  157 fps= 23 q=31.0 size=       0kB time=00:00:01.86 bitrate=   0.2kbits/s speed=0.274x    frame=  168 fps= 23 q=31.0 size=       0kB time=00:00:02.05 bitrate=   0.2kbits/s speed=0.279x    frame=  179 fps= 23 q=31.0 size=       0kB time=00:00:02.23 bitrate=   0.2kbits/s speed=0.284x    frame=  190 fps= 23 q=31.0 size=       0kB time=00:00:02.41 bitrate=   0.2kbits/s speed=0.288x    frame=  200 fps= 22 q=31.0 size=       0kB time=00:00:02.58 bitrate=   0.1kbits/s speed=0.29x    frame=  211 fps= 22 q=31.0 size=       0kB time=00:00:02.76 bitrate=   0.1kbits/s speed=0.293x    frame=  221 fps= 22 q=31.0 size=       0kB time=00:00:02.93 bitrate=   0.1kbits/s speed=0.295x    frame=  232 fps= 22 q=31.0 size=       0kB time=00:00:03.11 bitrate=   0.1kbits/s speed=0.298x    frame=  243 fps= 22 q=31.0 size=       0kB time=00:00:03.30 bitrate=   0.1kbits/s speed= 0.3x    frame=  253 fps= 22 q=31.0 size=       0kB time=00:00:03.46 bitrate=   0.1kbits/s speed=0.301x    frame=  263 fps= 22 q=31.0 size=       0kB time=00:00:03.63 bitrate=   0.1kbits/s speed=0.302x    frame=  273 fps= 22 q=31.0 size=       0kB time=00:00:03.80 bitrate=   0.1kbits/s speed=0.302x    frame=  282 fps= 22 q=31.0 size=       0kB time=00:00:03.95 bitrate=   0.1kbits/s speed=0.302x    frame=  290 fps= 21 q=31.0 size=       0kB time=00:00:04.08 bitrate=   0.1kbits/s speed=0.301x    frame=  298 fps= 21 q=31.0 size=       0kB time=00:00:04.21 bitrate=   0.1kbits/s speed=0.299x    frame=  306 fps= 21 q=31.0 size=       0kB time=00:00:04.35 bitrate=   0.1kbits/s speed=0.297x    frame=  314 fps= 21 q=31.0 size=     256kB time=00:00:04.48 bitrate= 467.8kbits/s speed=0.295x    frame=  323 fps= 20 q=31.0 size=     256kB time=00:00:04.63 bitrate= 452.7kbits/s speed=0.294x    frame=  331 fps= 20 q=31.0 size=     256kB time=00:00:04.76 bitrate= 440.0kbits/s speed=0.292x    frame=  339 fps= 20 q=31.0 size=     256kB time=00:00:04.90 bitrate= 428.1kbits/s speed=0.291x    frame=  347 fps= 20 q=31.0 size=     256kB time=00:00:05.03 bitrate= 416.7kbits/s speed=0.29x    frame=  355 fps= 20 q=31.0 size=     256kB time=00:00:05.16 bitrate= 406.0kbits/s speed=0.289x    frame=  363 fps= 20 q=31.0 size=     256kB time=00:00:05.30 bitrate= 395.8kbits/s speed=0.288x    frame=  372 fps= 20 q=31.0 size=     256kB time=00:00:05.45 bitrate= 384.9kbits/s speed=0.287x    frame=  380 fps= 19 q=31.0 size=     256kB time=00:00:05.58 bitrate= 375.7kbits/s speed=0.286x    frame=  388 fps= 19 q=31.0 size=     256kB time=00:00:05.71 bitrate= 366.9kbits/s speed=0.285x    frame=  396 fps= 19 q=31.0 size=     256kB time=00:00:05.85 bitrate= 358.5kbits/s speed=0.285x    frame=  404 fps= 19 q=31.0 size=     512kB time=00:00:05.98 bitrate= 701.1kbits/s speed=0.284x    frame=  412 fps= 19 q=31.0 size=     512kB time=00:00:06.11 bitrate= 685.8kbits/s speed=0.283x    frame=  420 fps= 19 q=31.0 size=     512kB time=00:00:06.25 bitrate= 671.1kbits/s speed=0.282x    frame=  428 fps= 19 q=31.0 size=     512kB time=00:00:06.38 bitrate= 657.1kbits/s speed=0.282x    frame=  436 fps= 19 q=31.0 size=     512kB time=00:00:06.51 bitrate= 643.7kbits/s speed=0.281x    frame=  445 fps= 19 q=31.0 size=     512kB time=00:00:06.66 bitrate= 629.2kbits/s speed=0.281x    frame=  454 fps= 19 q=31.0 size=     512kB time=00:00:06.81 bitrate= 615.4kbits/s speed=0.281x    frame=  462 fps= 19 q=31.0 size=     512kB time=00:00:06.95 bitrate= 603.5kbits/s speed=0.281x    frame=  471 fps= 19 q=31.0 size=     512kB time=00:00:07.10 bitrate= 590.8kbits/s speed=0.281x    frame=  480 fps= 19 q=31.0 size=     512kB time=00:00:07.25 bitrate= 578.6kbits/s speed=0.28x    frame=  489 fps= 19 q=31.0 size=     512kB time=00:00:07.40 bitrate= 566.8kbits/s speed=0.281x    frame=  496 fps= 18 q=31.0 size=     512kB time=00:00:07.51 bitrate= 558.0kbits/s speed=0.28x    frame=  505 fps= 18 q=31.0 size=     512kB time=00:00:07.66 bitrate= 547.1kbits/s speed=0.28x    frame=  513 fps= 18 q=31.0 size=     512kB time=00:00:07.80 bitrate= 537.8kbits/s speed=0.279x    frame=  521 fps= 18 q=31.0 size=     512kB time=00:00:07.93 bitrate= 528.7kbits/s speed=0.279x    frame=  529 fps= 18 q=31.0 size=     768kB time=00:00:08.06 bitrate= 780.0kbits/s speed=0.278x    frame=  536 fps= 18 q=31.0 size=     768kB time=00:00:08.18 bitrate= 768.9kbits/s speed=0.277x    frame=  543 fps= 18 q=31.0 size=     768kB time=00:00:08.30 bitrate= 758.0kbits/s speed=0.276x    frame=  551 fps= 18 q=31.0 size=     768kB time=00:00:08.43 bitrate= 746.1kbits/s speed=0.276x    frame=  558 fps= 18 q=31.0 size=     768kB time=00:00:08.55 bitrate= 735.9kbits/s speed=0.275x    frame=  565 fps= 18 q=31.0 size=     768kB time=00:00:08.66 bitrate= 726.0kbits/s speed=0.274x    frame=  572 fps= 18 q=31.0 size=     768kB time=00:00:08.78 bitrate= 716.3kbits/s speed=0.273x    frame=  579 fps= 18 q=31.0 size=     768kB time=00:00:08.90 bitrate= 706.9kbits/s speed=0.272x    frame=  586 fps= 18 q=31.0 size=     768kB time=00:00:09.01 bitrate= 697.8kbits/s speed=0.271x    frame=  593 fps= 18 q=31.0 size=     768kB time=00:00:09.13 bitrate= 688.9kbits/s speed=0.27x    frame=  601 fps= 17 q=31.0 size=     768kB time=00:00:09.26 bitrate= 679.0kbits/s speed=0.27x    frame=  608 fps= 17 q=31.0 size=    1024kB time=00:00:09.38 bitrate= 894.0kbits/s speed=0.269x    frame=  616 fps= 17 q=31.0 size=    1024kB time=00:00:09.51 bitrate= 881.5kbits/s speed=0.269x    frame=  623 fps= 17 q=31.0 size=    1024kB time=00:00:09.63 bitrate= 870.8kbits/s speed=0.268x    frame=  630 fps= 17 q=31.0 size=    1024kB time=00:00:09.75 bitrate= 860.4kbits/s speed=0.267x    frame=  637 fps= 17 q=31.0 size=    1024kB time=00:00:09.86 bitrate= 850.2kbits/s speed=0.267x    frame=  644 fps= 17 q=31.0 size=    1024kB time=00:00:09.98 bitrate= 840.3kbits/s speed=0.266x    frame=  651 fps= 17 q=31.0 size=    1024kB time=00:00:10.10 bitrate= 830.6kbits/s speed=0.266x    frame=  658 fps= 17 q=31.0 size=    1024kB time=00:00:10.21 bitrate= 821.1kbits/s speed=0.265x    frame=  665 fps= 17 q=31.0 size=    1024kB time=00:00:10.33 bitrate= 811.8kbits/s speed=0.265x    frame=  672 fps= 17 q=31.0 size=    1024kB time=00:00:10.45 bitrate= 802.8kbits/s speed=0.264x    frame=  679 fps= 17 q=31.0 size=    1280kB time=00:00:10.56 bitrate= 992.4kbits/s speed=0.264x    frame=  686 fps= 17 q=31.0 size=    1280kB time=00:00:10.68 bitrate= 981.5kbits/s speed=0.263x    frame=  694 fps= 17 q=31.0 size=    1280kB time=00:00:10.81 bitrate= 969.4kbits/s speed=0.263x    frame=  701 fps= 17 q=31.0 size=    1280kB time=00:00:10.93 bitrate= 959.1kbits/s speed=0.263x    frame=  709 fps= 17 q=31.0 size=    1280kB time=00:00:11.06 bitrate= 947.5kbits/s speed=0.263x    frame=  716 fps= 17 q=31.0 size=    1280kB time=00:00:11.18 bitrate= 937.7kbits/s speed=0.262x    frame=  724 fps= 17 q=31.0 size=    1280kB time=00:00:11.31 bitrate= 926.6kbits/s speed=0.262x    frame=  732 fps= 17 q=31.0 size=    1280kB time=00:00:11.45 bitrate= 915.8kbits/s speed=0.262x    frame=  740 fps= 17 q=31.0 size=    1280kB time=00:00:11.58 bitrate= 905.3kbits/s speed=0.262x    frame=  748 fps= 17 q=31.0 size=    1280kB time=00:00:11.71 bitrate= 895.0kbits/s speed=0.262x    frame=  756 fps= 17 q=31.0 size=    1280kB time=00:00:11.85 bitrate= 884.9kbits/s speed=0.262x    frame=  764 fps= 17 q=31.0 size=    1280kB time=00:00:11.98 bitrate= 875.1kbits/s speed=0.262x    frame=  773 fps= 17 q=31.0 size=    1280kB time=00:00:12.13 bitrate= 864.2kbits/s speed=0.262x    frame=  780 fps= 17 q=31.0 size=    1280kB time=00:00:12.25 bitrate= 856.0kbits/s speed=0.261x    frame=  788 fps= 17 q=31.0 size=    1280kB time=00:00:12.38 bitrate= 846.8kbits/s speed=0.261x    frame=  796 fps= 17 q=31.0 size=    1280kB time=00:00:12.51 bitrate= 837.8kbits/s speed=0.261x    frame=  804 fps= 17 q=31.0 size=    1280kB time=00:00:12.65 bitrate= 828.9kbits/s speed=0.261x    frame=  812 fps= 17 q=31.0 size=    1536kB time=00:00:12.78 bitrate= 984.3kbits/s speed=0.261x    frame=  820 fps= 17 q=31.0 size=    1536kB time=00:00:12.91 bitrate= 974.2kbits/s speed=0.261x    frame=  828 fps= 17 q=31.0 size=    1536kB time=00:00:13.05 bitrate= 964.2kbits/s speed=0.26x    frame=  836 fps= 17 q=31.0 size=    1536kB time=00:00:13.18 bitrate= 954.5kbits/s speed=0.26x    frame=  844 fps= 17 q=31.0 size=    1536kB time=00:00:13.31 bitrate= 944.9kbits/s speed=0.261x    frame=  852 fps= 16 q=31.0 size=    1536kB time=00:00:13.45 bitrate= 935.6kbits/s speed=0.26x    frame=  860 fps= 16 q=31.0 size=    1536kB time=00:00:13.58 bitrate= 926.4kbits/s speed=0.26x    frame=  868 fps= 16 q=31.0 size=    1536kB time=00:00:13.71 bitrate= 917.4kbits/s speed=0.26x    frame=  876 fps= 16 q=31.0 size=    1536kB time=00:00:13.85 bitrate= 908.5kbits/s speed=0.26x    frame=  884 fps= 16 q=31.0 size=    1536kB time=00:00:13.98 bitrate= 899.9kbits/s speed=0.26x    frame=  892 fps= 16 q=31.0 size=    1536kB time=00:00:14.11 bitrate= 891.4kbits/s speed=0.26x    frame=  899 fps= 16 q=31.0 size=    1536kB time=00:00:14.23 bitrate= 884.1kbits/s speed=0.259x    frame=  906 fps= 16 q=31.0 size=    1536kB time=00:00:14.35 bitrate= 876.9kbits/s speed=0.259x    frame=  913 fps= 16 q=31.0 size=    1536kB time=00:00:14.46 bitrate= 869.8kbits/s speed=0.259x    frame=  920 fps= 16 q=31.0 size=    1536kB time=00:00:14.58 bitrate= 862.9kbits/s speed=0.259x    frame=  927 fps= 16 q=31.0 size=    1536kB time=00:00:14.70 bitrate= 856.0kbits/s speed=0.258x    frame=  934 fps= 16 q=31.0 size=    1536kB time=00:00:14.81 bitrate= 849.3kbits/s speed=0.258x    frame=  942 fps= 16 q=31.0 size=    1536kB time=00:00:14.95 bitrate= 841.7kbits/s speed=0.258x    frame=  949 fps= 16 q=31.0 size=    1792kB time=00:00:15.06 bitrate= 974.4kbits/s speed=0.258x    frame=  956 fps= 16 q=31.0 size=    1792kB time=00:00:15.18 bitrate= 966.9kbits/s speed=0.257x    frame=  964 fps= 16 q=31.0 size=    1792kB time=00:00:15.31 bitrate= 958.5kbits/s speed=0.257x    frame=  972 fps= 16 q=31.0 size=    1792kB time=00:00:15.45 bitrate= 950.2kbits/s speed=0.257x    frame=  980 fps= 16 q=31.0 size=    1792kB time=00:00:15.58 bitrate= 942.1kbits/s speed=0.257x    frame=  987 fps= 16 q=31.0 size=    1792kB time=00:00:15.70 bitrate= 935.1kbits/s speed=0.257x    frame=  995 fps= 16 q=31.0 size=    1792kB time=00:00:15.83 bitrate= 927.2kbits/s speed=0.257x    frame= 1004 fps= 16 q=31.0 size=    1792kB time=00:00:15.98 bitrate= 918.5kbits/s speed=0.257x    frame= 1013 fps= 16 q=31.0 size=    1792kB time=00:00:16.13 bitrate= 909.9kbits/s speed=0.257x    frame= 1021 fps= 16 q=31.0 size=    1792kB time=00:00:16.26 bitrate= 902.5kbits/s speed=0.257x    frame= 1028 fps= 16 q=31.0 size=    1792kB time=00:00:16.38 bitrate= 896.1kbits/s speed=0.257x    frame= 1036 fps= 16 q=31.0 size=    1792kB time=00:00:16.51 bitrate= 888.8kbits/s speed=0.257x    frame= 1044 fps= 16 q=31.0 size=    1792kB time=00:00:16.65 bitrate= 881.7kbits/s speed=0.257x    frame= 1051 fps= 16 q=31.0 size=    2048kB time=00:00:16.76 bitrate=1000.6kbits/s speed=0.257x    frame= 1059 fps= 16 q=31.0 size=    2048kB time=00:00:16.90 bitrate= 992.8kbits/s speed=0.256x    frame= 1067 fps= 16 q=31.0 size=    2048kB time=00:00:17.03 bitrate= 985.0kbits/s speed=0.256x    frame= 1075 fps= 16 q=31.0 size=    2048kB time=00:00:17.16 bitrate= 977.3kbits/s speed=0.256x    frame= 1083 fps= 16 q=31.0 size=    2048kB time=00:00:17.30 bitrate= 969.8kbits/s speed=0.256x    frame= 1091 fps= 16 q=31.0 size=    2048kB time=00:00:17.43 bitrate= 962.4kbits/s speed=0.256x    frame= 1099 fps= 16 q=31.0 size=    2048kB time=00:00:17.56 bitrate= 955.1kbits/s speed=0.256x    frame= 1107 fps= 16 q=31.0 size=    2048kB time=00:00:17.70 bitrate= 947.9kbits/s speed=0.256x    frame= 1115 fps= 16 q=31.0 size=    2048kB time=00:00:17.83 bitrate= 940.8kbits/s speed=0.256x    frame= 1123 fps= 16 q=31.0 size=    2048kB time=00:00:17.96 bitrate= 933.8kbits/s speed=0.256x    frame= 1131 fps= 16 q=31.0 size=    2048kB time=00:00:18.10 bitrate= 926.9kbits/s speed=0.256x    frame= 1139 fps= 16 q=31.0 size=    2048kB time=00:00:18.23 bitrate= 920.2kbits/s speed=0.256x    frame= 1147 fps= 16 q=31.0 size=    2048kB time=00:00:18.36 bitrate= 913.5kbits/s speed=0.256x    frame= 1155 fps= 16 q=31.0 size=    2048kB time=00:00:18.50 bitrate= 906.9kbits/s speed=0.256x    frame= 1163 fps= 16 q=31.0 size=    2048kB time=00:00:18.63 bitrate= 900.4kbits/s speed=0.256x    frame= 1171 fps= 16 q=31.0 size=    2048kB time=00:00:18.76 bitrate= 894.0kbits/s speed=0.256x    frame= 1179 fps= 16 q=31.0 size=    2304kB time=00:00:18.90 bitrate= 998.7kbits/s speed=0.256x    frame= 1186 fps= 16 q=31.0 size=    2304kB time=00:00:19.01 bitrate= 992.5kbits/s speed=0.256x    frame= 1194 fps= 16 q=31.0 size=    2304kB time=00:00:19.15 bitrate= 985.6kbits/s speed=0.256x    frame= 1202 fps= 16 q=31.0 size=    2304kB time=00:00:19.28 bitrate= 978.8kbits/s speed=0.256x    frame= 1210 fps= 16 q=31.0 size=    2304kB time=00:00:19.41 bitrate= 972.1kbits/s speed=0.255x    frame= 1217 fps= 16 q=31.0 size=    2304kB time=00:00:19.53 bitrate= 966.3kbits/s speed=0.255x    frame= 1225 fps= 16 q=31.0 size=    2304kB time=00:00:19.66 bitrate= 959.7kbits/s speed=0.255x    frame= 1233 fps= 16 q=31.0 size=    2304kB time=00:00:19.80 bitrate= 953.3kbits/s speed=0.255x    frame= 1241 fps= 16 q=31.0 size=    2304kB time=00:00:19.93 bitrate= 946.9kbits/s speed=0.255x    frame= 1249 fps= 16 q=31.0 size=    2560kB time=00:00:20.06 bitrate=1045.1kbits/s speed=0.255x    frame= 1256 fps= 16 q=31.0 size=    2560kB time=00:00:20.18 bitrate=1039.1kbits/s speed=0.255x    frame= 1263 fps= 16 q=31.0 size=    2560kB time=00:00:20.30 bitrate=1033.1kbits/s speed=0.254x    frame= 1271 fps= 16 q=31.0 size=    2560kB time=00:00:20.43 bitrate=1026.4kbits/s speed=0.254x    frame= 1279 fps= 16 q=31.0 size=    2560kB time=00:00:20.56 bitrate=1019.7kbits/s speed=0.254x    frame= 1287 fps= 16 q=31.0 size=    2560kB time=00:00:20.70 bitrate=1013.1kbits/s speed=0.254x    frame= 1295 fps= 16 q=31.0 size=    2560kB time=00:00:20.83 bitrate=1006.6kbits/s speed=0.254x    frame= 1303 fps= 16 q=31.0 size=    2560kB time=00:00:20.96 bitrate=1000.2kbits/s speed=0.254x    frame= 1311 fps= 16 q=31.0 size=    2560kB time=00:00:21.10 bitrate= 993.9kbits/s speed=0.254x    frame= 1319 fps= 16 q=31.0 size=    2560kB time=00:00:21.23 bitrate= 987.7kbits/s speed=0.254x    frame= 1327 fps= 16 q=31.0 size=    2816kB time=00:00:21.36 bitrate=1079.7kbits/s speed=0.254x    frame= 1335 fps= 16 q=31.0 size=    2816kB time=00:00:21.50 bitrate=1073.0kbits/s speed=0.254x    frame= 1343 fps= 16 q=31.0 size=    2816kB time=00:00:21.63 bitrate=1066.4kbits/s speed=0.254x    frame= 1351 fps= 16 q=31.0 size=    2816kB time=00:00:21.76 bitrate=1059.8kbits/s speed=0.254x    frame= 1360 fps= 16 q=31.0 size=    2816kB time=00:00:21.91 bitrate=1052.6kbits/s speed=0.254x    frame= 1368 fps= 16 q=31.0 size=    2816kB time=00:00:22.05 bitrate=1046.2kbits/s speed=0.254x    frame= 1376 fps= 16 q=31.0 size=    2816kB time=00:00:22.18 bitrate=1039.9kbits/s speed=0.254x    frame= 1383 fps= 16 q=31.0 size=    2816kB time=00:00:22.30 bitrate=1034.5kbits/s speed=0.254x    frame= 1391 fps= 16 q=31.0 size=    2816kB time=00:00:22.43 bitrate=1028.3kbits/s speed=0.254x    frame= 1398 fps= 16 q=31.0 size=    2816kB time=00:00:22.55 bitrate=1023.0kbits/s speed=0.254x    frame= 1405 fps= 16 q=31.0 size=    2816kB time=00:00:22.66 bitrate=1017.7kbits/s speed=0.254x    frame= 1412 fps= 16 q=31.0 size=    2816kB time=00:00:22.78 bitrate=1012.5kbits/s speed=0.254x    frame= 1419 fps= 16 q=31.0 size=    2816kB time=00:00:22.90 bitrate=1007.4kbits/s speed=0.253x    frame= 1426 fps= 16 q=31.0 size=    2816kB time=00:00:23.01 bitrate=1002.3kbits/s speed=0.253x    frame= 1433 fps= 16 q=31.0 size=    2816kB time=00:00:23.13 bitrate= 997.2kbits/s speed=0.253x    frame= 1441 fps= 16 q=31.0 size=    2816kB time=00:00:23.26 bitrate= 991.5kbits/s speed=0.253x    frame= 1449 fps= 16 q=31.0 size=    3072kB time=00:00:23.40 bitrate=1075.5kbits/s speed=0.253x    frame= 1455 fps= 16 q=31.0 size=    3072kB time=00:00:23.50 bitrate=1070.9kbits/s speed=0.253x    frame= 1463 fps= 16 q=31.0 size=    3072kB time=00:00:23.63 bitrate=1064.9kbits/s speed=0.253x    frame= 1471 fps= 16 q=31.0 size=    3072kB time=00:00:23.76 bitrate=1058.9kbits/s speed=0.252x    frame= 1478 fps= 16 q=31.0 size=    3072kB time=00:00:23.88 bitrate=1053.7kbits/s speed=0.252x    frame= 1485 fps= 16 q=31.0 size=    3072kB time=00:00:24.00 bitrate=1048.6kbits/s speed=0.252x    frame= 1493 fps= 16 q=31.0 size=    3072kB time=00:00:24.13 bitrate=1042.8kbits/s speed=0.252x    frame= 1500 fps= 16 q=31.0 size=    3072kB time=00:00:24.25 bitrate=1037.8kbits/s speed=0.252x    frame= 1507 fps= 16 q=31.0 size=    3072kB time=00:00:24.36 bitrate=1032.8kbits/s speed=0.252x    frame= 1515 fps= 16 q=31.0 size=    3072kB time=00:00:24.50 bitrate=1027.2kbits/s speed=0.252x    frame= 1522 fps= 16 q=31.0 size=    3072kB time=00:00:24.61 bitrate=1022.3kbits/s speed=0.252x    frame= 1528 fps= 16 q=31.0 size=    3072kB time=00:00:24.71 bitrate=1018.2kbits/s speed=0.251x    frame= 1535 fps= 16 q=31.0 size=    3072kB time=00:00:24.83 bitrate=1013.4kbits/s speed=0.251x    frame= 1542 fps= 16 q=31.0 size=    3072kB time=00:00:24.95 bitrate=1008.7kbits/s speed=0.251x    frame= 1549 fps= 15 q=31.0 size=    3072kB time=00:00:25.06 bitrate=1004.0kbits/s speed=0.251x    frame= 1556 fps= 15 q=31.0 size=    3072kB time=00:00:25.18 bitrate= 999.3kbits/s speed=0.251x    frame= 1563 fps= 15 q=31.0 size=    3328kB time=00:00:25.30 bitrate=1077.6kbits/s speed=0.25x    frame= 1570 fps= 15 q=31.0 size=    3328kB time=00:00:25.41 bitrate=1072.7kbits/s speed=0.25x    frame= 1577 fps= 15 q=31.0 size=    3328kB time=00:00:25.53 bitrate=1067.8kbits/s speed=0.25x    frame= 1584 fps= 15 q=31.0 size=    3328kB time=00:00:25.65 bitrate=1062.9kbits/s speed=0.25x    frame= 1591 fps= 15 q=31.0 size=    3328kB time=00:00:25.76 bitrate=1058.1kbits/s speed=0.25x    frame= 1598 fps= 15 q=31.0 size=    3328kB time=00:00:25.88 bitrate=1053.3kbits/s speed=0.249x    frame= 1605 fps= 15 q=31.0 size=    3328kB time=00:00:26.00 bitrate=1048.6kbits/s speed=0.249x    frame= 1612 fps= 15 q=31.0 size=    3328kB time=00:00:26.11 bitrate=1043.9kbits/s speed=0.249x    frame= 1619 fps= 15 q=31.0 size=    3328kB time=00:00:26.23 bitrate=1039.3kbits/s speed=0.249x    frame= 1626 fps= 15 q=31.0 size=    3328kB time=00:00:26.35 bitrate=1034.7kbits/s speed=0.249x    frame= 1633 fps= 15 q=31.0 size=    3328kB time=00:00:26.46 bitrate=1030.1kbits/s speed=0.248x    frame= 1639 fps= 15 q=31.0 size=    3328kB time=00:00:26.56 bitrate=1026.2kbits/s speed=0.248x    frame= 1646 fps= 15 q=31.0 size=    3328kB time=00:00:26.68 bitrate=1021.7kbits/s speed=0.248x    frame= 1652 fps= 15 q=31.0 size=    3328kB time=00:00:26.78 bitrate=1017.9kbits/s speed=0.248x    frame= 1659 fps= 15 q=31.0 size=    3584kB time=00:00:26.90 bitrate=1091.5kbits/s speed=0.247x    frame= 1666 fps= 15 q=31.0 size=    3584kB time=00:00:27.01 bitrate=1086.8kbits/s speed=0.247x    frame= 1673 fps= 15 q=31.0 size=    3584kB time=00:00:27.13 bitrate=1082.1kbits/s speed=0.247x    frame= 1680 fps= 15 q=31.0 size=    3584kB time=00:00:27.25 bitrate=1077.4kbits/s speed=0.247x    frame= 1687 fps= 15 q=31.0 size=    3584kB time=00:00:27.36 bitrate=1072.9kbits/s speed=0.247x    frame= 1694 fps= 15 q=31.0 size=    3584kB time=00:00:27.48 bitrate=1068.3kbits/s speed=0.246x    frame= 1700 fps= 15 q=31.0 size=    3584kB time=00:00:27.58 bitrate=1064.4kbits/s speed=0.246x    frame= 1707 fps= 15 q=31.0 size=    3584kB time=00:00:27.70 bitrate=1059.9kbits/s speed=0.246x    frame= 1714 fps= 15 q=31.0 size=    3584kB time=00:00:27.81 bitrate=1055.5kbits/s speed=0.246x    frame= 1721 fps= 15 q=31.0 size=    3584kB time=00:00:27.93 bitrate=1051.1kbits/s speed=0.246x    frame= 1728 fps= 15 q=31.0 size=    3584kB time=00:00:28.05 bitrate=1046.7kbits/s speed=0.246x    frame= 1735 fps= 15 q=31.0 size=    3584kB time=00:00:28.16 bitrate=1042.4kbits/s speed=0.245x    frame= 1742 fps= 15 q=31.0 size=    3584kB time=00:00:28.28 bitrate=1038.1kbits/s speed=0.245x    frame= 1749 fps= 15 q=31.0 size=    3584kB time=00:00:28.40 bitrate=1033.8kbits/s speed=0.245x    frame= 1756 fps= 15 q=31.0 size=    3584kB time=00:00:28.51 bitrate=1029.6kbits/s speed=0.245x    frame= 1763 fps= 15 q=31.0 size=    3584kB time=00:00:28.63 bitrate=1025.4kbits/s speed=0.245x    frame= 1769 fps= 15 q=31.0 size=    3840kB time=00:00:28.73 bitrate=1094.8kbits/s speed=0.245x    frame= 1776 fps= 15 q=31.0 size=    3840kB time=00:00:28.85 bitrate=1090.4kbits/s speed=0.244x    frame= 1783 fps= 15 q=31.0 size=    3840kB time=00:00:28.96 bitrate=1086.0kbits/s speed=0.244x    frame= 1790 fps= 15 q=31.0 size=    3840kB time=00:00:29.08 bitrate=1081.6kbits/s speed=0.244x    frame= 1797 fps= 15 q=31.0 size=    3840kB time=00:00:29.20 bitrate=1077.3kbits/s speed=0.244x    frame= 1806 fps= 15 q=31.0 size=    3840kB time=00:00:29.35 bitrate=1071.8kbits/s speed=0.244x    frame= 1815 fps= 15 q=31.0 size=    3840kB time=00:00:29.50 bitrate=1066.4kbits/s speed=0.244x    frame= 1824 fps= 15 q=31.0 size=    3840kB time=00:00:29.65 bitrate=1061.0kbits/s speed=0.244x    frame= 1831 fps= 15 q=31.0 size=    3840kB time=00:00:29.76 bitrate=1056.8kbits/s speed=0.244x    frame= 1838 fps= 15 q=31.0 size=    3840kB time=00:00:29.88 bitrate=1052.7kbits/s speed=0.244x    frame= 1845 fps= 15 q=31.0 size=    3840kB time=00:00:30.00 bitrate=1048.6kbits/s speed=0.244x    frame= 1852 fps= 15 q=31.0 size=    3840kB time=00:00:30.11 bitrate=1044.5kbits/s speed=0.244x    frame= 1857 fps= 15 q=31.0 size=    3840kB time=00:00:30.20 bitrate=1041.6kbits/s speed=0.243x    frame= 1863 fps= 15 q=31.0 size=    3840kB time=00:00:30.30 bitrate=1038.2kbits/s speed=0.243x    frame= 1869 fps= 15 q=31.0 size=    3840kB time=00:00:30.40 bitrate=1034.8kbits/s speed=0.243x    frame= 1876 fps= 15 q=31.0 size=    3840kB time=00:00:30.51 bitrate=1030.8kbits/s speed=0.243x    frame= 1881 fps= 15 q=31.0 size=    3840kB time=00:00:30.60 bitrate=1028.0kbits/s speed=0.242x    frame= 1887 fps= 15 q=31.0 size=    3840kB time=00:00:30.70 bitrate=1024.7kbits/s speed=0.242x    frame= 1893 fps= 15 q=31.0 size=    3840kB time=00:00:30.80 bitrate=1021.4kbits/s speed=0.242x    frame= 1899 fps= 15 q=31.0 size=    4096kB time=00:00:30.90 bitrate=1085.9kbits/s speed=0.242x    frame= 1905 fps= 15 q=31.0 size=    4096kB time=00:00:31.00 bitrate=1082.4kbits/s speed=0.242x    frame= 1912 fps= 15 q=31.0 size=    4096kB time=00:00:31.11 bitrate=1078.4kbits/s speed=0.241x    frame= 1918 fps= 15 q=31.0 size=    4096kB time=00:00:31.21 bitrate=1074.9kbits/s speed=0.241x    frame= 1924 fps= 15 q=31.0 size=    4096kB time=00:00:31.31 bitrate=1071.5kbits/s speed=0.241x    frame= 1930 fps= 15 q=31.0 size=    4096kB time=00:00:31.41 bitrate=1068.1kbits/s speed=0.241x    frame= 1937 fps= 15 q=31.0 size=    4096kB time=00:00:31.53 bitrate=1064.1kbits/s speed=0.241x    frame= 1944 fps= 15 q=31.0 size=    4096kB time=00:00:31.65 bitrate=1060.2kbits/s speed=0.241x    frame= 1950 fps= 15 q=31.0 size=    4096kB time=00:00:31.75 bitrate=1056.8kbits/s speed=0.24x    frame= 1956 fps= 15 q=31.0 size=    4352kB time=00:00:31.85 bitrate=1119.4kbits/s speed=0.24x    frame= 1962 fps= 15 q=31.0 size=    4352kB time=00:00:31.95 bitrate=1115.9kbits/s speed=0.24x    frame= 1969 fps= 15 q=31.0 size=    4352kB time=00:00:32.06 bitrate=1111.8kbits/s speed=0.24x    frame= 1976 fps= 15 q=31.0 size=    4352kB time=00:00:32.18 bitrate=1107.8kbits/s speed=0.24x    frame= 1983 fps= 15 q=31.0 size=    4352kB time=00:00:32.30 bitrate=1103.8kbits/s speed=0.24x    frame= 1989 fps= 15 q=31.0 size=    4352kB time=00:00:32.40 bitrate=1100.4kbits/s speed=0.239x    frame= 1995 fps= 15 q=31.0 size=    4352kB time=00:00:32.50 bitrate=1097.0kbits/s speed=0.239x    frame= 2002 fps= 15 q=31.0 size=    4352kB time=00:00:32.61 bitrate=1093.1kbits/s speed=0.239x    frame= 2009 fps= 15 q=31.0 size=    4352kB time=00:00:32.73 bitrate=1089.2kbits/s speed=0.239x    frame= 2016 fps= 15 q=29.0 size=    4352kB time=00:00:32.85 bitrate=1085.3kbits/s speed=0.239x    frame= 2023 fps= 15 q=31.0 size=    4608kB time=00:00:32.96 bitrate=1145.1kbits/s speed=0.239x    frame= 2030 fps= 15 q=31.0 size=    4608kB time=00:00:33.08 bitrate=1141.0kbits/s speed=0.239x    frame= 2036 fps= 15 q=31.0 size=    4608kB time=00:00:33.18 bitrate=1137.6kbits/s speed=0.238x    frame= 2043 fps= 15 q=31.0 size=    4608kB time=00:00:33.30 bitrate=1133.6kbits/s speed=0.238x    frame= 2050 fps= 15 q=31.0 size=    4608kB time=00:00:33.41 bitrate=1129.6kbits/s speed=0.238x    frame= 2057 fps= 15 q=31.0 size=    4608kB time=00:00:33.53 bitrate=1125.7kbits/s speed=0.238x    frame= 2064 fps= 15 q=31.0 size=    4608kB time=00:00:33.65 bitrate=1121.8kbits/s speed=0.238x    frame= 2071 fps= 15 q=31.0 size=    4608kB time=00:00:33.76 bitrate=1117.9kbits/s speed=0.238x    frame= 2078 fps= 15 q=31.0 size=    4608kB time=00:00:33.88 bitrate=1114.1kbits/s speed=0.238x    frame= 2084 fps= 15 q=31.0 size=    4608kB time=00:00:33.98 bitrate=1110.8kbits/s speed=0.238x    frame= 2091 fps= 15 q=31.0 size=    4608kB time=00:00:34.10 bitrate=1107.0kbits/s speed=0.238x    frame= 2097 fps= 15 q=31.0 size=    4608kB time=00:00:34.20 bitrate=1103.8kbits/s speed=0.237x    frame= 2104 fps= 15 q=31.0 size=    4608kB time=00:00:34.31 bitrate=1100.0kbits/s speed=0.237x    frame= 2111 fps= 15 q=31.0 size=    4608kB time=00:00:34.43 bitrate=1096.3kbits/s speed=0.237x    frame= 2117 fps= 15 q=31.0 size=    4608kB time=00:00:34.53 bitrate=1093.1kbits/s speed=0.237x    frame= 2124 fps= 15 q=31.0 size=    4608kB time=00:00:34.65 bitrate=1089.4kbits/s speed=0.237x    frame= 2130 fps= 15 q=31.0 size=    4608kB time=00:00:34.75 bitrate=1086.3kbits/s speed=0.237x    frame= 2136 fps= 14 q=31.0 size=    4864kB time=00:00:34.85 bitrate=1143.4kbits/s speed=0.237x    frame= 2142 fps= 14 q=31.0 size=    4864kB time=00:00:34.95 bitrate=1140.1kbits/s speed=0.236x    frame= 2149 fps= 14 q=31.0 size=    4864kB time=00:00:35.06 bitrate=1136.3kbits/s speed=0.236x    frame= 2155 fps= 14 q=31.0 size=    4864kB time=00:00:35.16 bitrate=1133.1kbits/s speed=0.236x    frame= 2162 fps= 14 q=31.0 size=    4864kB time=00:00:35.28 bitrate=1129.3kbits/s speed=0.236x    frame= 2169 fps= 14 q=31.0 size=    4864kB time=00:00:35.40 bitrate=1125.6kbits/s speed=0.236x    frame= 2174 fps= 14 q=31.0 size=    4864kB time=00:00:35.48 bitrate=1123.0kbits/s speed=0.236x    frame= 2181 fps= 14 q=31.0 size=    4864kB time=00:00:35.60 bitrate=1119.3kbits/s speed=0.235x    frame= 2188 fps= 14 q=31.0 size=    4864kB time=00:00:35.71 bitrate=1115.6kbits/s speed=0.235x    frame= 2195 fps= 14 q=31.0 size=    4864kB time=00:00:35.83 bitrate=1112.0kbits/s speed=0.235x    frame= 2201 fps= 14 q=31.0 size=    5120kB time=00:00:35.93 bitrate=1167.3kbits/s speed=0.235x    frame= 2207 fps= 14 q=31.0 size=    5120kB time=00:00:36.03 bitrate=1164.0kbits/s speed=0.235x    frame= 2214 fps= 14 q=31.0 size=    5120kB time=00:00:36.15 bitrate=1160.3kbits/s speed=0.235x    frame= 2221 fps= 14 q=31.0 size=    5120kB time=00:00:36.26 bitrate=1156.5kbits/s speed=0.235x    frame= 2227 fps= 14 q=31.0 size=    5120kB time=00:00:36.36 bitrate=1153.3kbits/s speed=0.235x    frame= 2234 fps= 14 q=31.0 size=    5120kB time=00:00:36.48 bitrate=1149.7kbits/s speed=0.235x    frame= 2241 fps= 14 q=31.0 size=    5120kB time=00:00:36.60 bitrate=1146.0kbits/s speed=0.234x    frame= 2248 fps= 14 q=31.0 size=    5120kB time=00:00:36.71 bitrate=1142.4kbits/s speed=0.234x    frame= 2255 fps= 14 q=31.0 size=    5120kB time=00:00:36.83 bitrate=1138.7kbits/s speed=0.234x    frame= 2261 fps= 14 q=31.0 size=    5120kB time=00:00:36.93 bitrate=1135.7kbits/s speed=0.234x    frame= 2269 fps= 14 q=31.0 size=    5376kB time=00:00:37.06 bitrate=1188.1kbits/s speed=0.234x    frame= 2275 fps= 14 q=31.0 size=    5376kB time=00:00:37.16 bitrate=1184.9kbits/s speed=0.234x    frame= 2282 fps= 14 q=31.0 size=    5376kB time=00:00:37.28 bitrate=1181.2kbits/s speed=0.234x    frame= 2289 fps= 14 q=31.0 size=    5376kB time=00:00:37.40 bitrate=1177.6kbits/s speed=0.234x    frame= 2296 fps= 14 q=31.0 size=    5376kB time=00:00:37.51 bitrate=1173.9kbits/s speed=0.234x    frame= 2303 fps= 14 q=31.0 size=    5376kB time=00:00:37.63 bitrate=1170.3kbits/s speed=0.234x    frame= 2310 fps= 14 q=31.0 size=    5376kB time=00:00:37.75 bitrate=1166.6kbits/s speed=0.234x    frame= 2317 fps= 14 q=31.0 size=    5376kB time=00:00:37.86 bitrate=1163.0kbits/s speed=0.234x    frame= 2324 fps= 14 q=31.0 size=    5376kB time=00:00:37.98 bitrate=1159.5kbits/s speed=0.234x    frame= 2331 fps= 14 q=31.0 size=    5376kB time=00:00:38.10 bitrate=1155.9kbits/s speed=0.234x    frame= 2337 fps= 14 q=31.0 size=    5376kB time=00:00:38.20 bitrate=1152.9kbits/s speed=0.234x    frame= 2344 fps= 14 q=31.0 size=    5376kB time=00:00:38.31 bitrate=1149.4kbits/s speed=0.233x    frame= 2351 fps= 14 q=31.0 size=    5376kB time=00:00:38.43 bitrate=1145.9kbits/s speed=0.233x    frame= 2358 fps= 14 q=31.0 size=    5376kB time=00:00:38.55 bitrate=1142.4kbits/s speed=0.233x    frame= 2365 fps= 14 q=31.0 size=    5632kB time=00:00:38.66 bitrate=1193.2kbits/s speed=0.233x    frame= 2371 fps= 14 q=31.0 size=    5632kB time=00:00:38.76 bitrate=1190.1kbits/s speed=0.233x    frame= 2377 fps= 14 q=31.0 size=    5632kB time=00:00:38.86 bitrate=1187.1kbits/s speed=0.233x    frame= 2383 fps= 14 q=31.0 size=    5632kB time=00:00:38.96 bitrate=1184.0kbits/s speed=0.233x    frame= 2389 fps= 14 q=31.0 size=    5632kB time=00:00:39.06 bitrate=1181.0kbits/s speed=0.233x    frame= 2395 fps= 14 q=31.0 size=    5632kB time=00:00:39.16 bitrate=1178.0kbits/s speed=0.232x    frame= 2401 fps= 14 q=31.0 size=    5632kB time=00:00:39.26 bitrate=1175.0kbits/s speed=0.232x    frame= 2407 fps= 14 q=31.0 size=    5632kB time=00:00:39.36 bitrate=1172.0kbits/s speed=0.232x    frame= 2413 fps= 14 q=31.0 size=    5632kB time=00:00:39.46 bitrate=1169.0kbits/s speed=0.232x    frame= 2419 fps= 14 q=31.0 size=    5632kB time=00:00:39.56 bitrate=1166.1kbits/s speed=0.232x    frame= 2425 fps= 14 q=31.0 size=    5888kB time=00:00:39.66 bitrate=1216.0kbits/s speed=0.232x    frame= 2431 fps= 14 q=31.0 size=    5888kB time=00:00:39.76 bitrate=1212.9kbits/s speed=0.231x    frame= 2437 fps= 14 q=31.0 size=    5888kB time=00:00:39.86 bitrate=1209.9kbits/s speed=0.231x    frame= 2443 fps= 14 q=31.0 size=    5888kB time=00:00:39.96 bitrate=1206.9kbits/s speed=0.231x    frame= 2449 fps= 14 q=31.0 size=    5888kB time=00:00:40.06 bitrate=1203.9kbits/s speed=0.231x    frame= 2455 fps= 14 q=31.0 size=    5888kB time=00:00:40.16 bitrate=1200.9kbits/s speed=0.231x    frame= 2461 fps= 14 q=31.0 size=    5888kB time=00:00:40.26 bitrate=1197.9kbits/s speed=0.231x    frame= 2468 fps= 14 q=31.0 size=    5888kB time=00:00:40.38 bitrate=1194.4kbits/s speed=0.231x    frame= 2474 fps= 14 q=31.0 size=    5888kB time=00:00:40.48 bitrate=1191.5kbits/s speed=0.231x    frame= 2481 fps= 14 q=31.0 size=    5888kB time=00:00:40.60 bitrate=1188.0kbits/s speed=0.231x    frame= 2488 fps= 14 q=31.0 size=    6144kB time=00:00:40.71 bitrate=1236.2kbits/s speed=0.231x    frame= 2495 fps= 14 q=31.0 size=    6144kB time=00:00:40.83 bitrate=1232.6kbits/s speed=0.23x    frame= 2502 fps= 14 q=31.0 size=    6144kB time=00:00:40.95 bitrate=1229.1kbits/s speed=0.23x    frame= 2509 fps= 14 q=31.0 size=    6144kB time=00:00:41.06 bitrate=1225.6kbits/s speed=0.23x    frame= 2516 fps= 14 q=29.0 size=    6144kB time=00:00:41.18 bitrate=1222.1kbits/s speed=0.23x    frame= 2523 fps= 14 q=31.0 size=    6144kB time=00:00:41.30 bitrate=1218.7kbits/s speed=0.23x    frame= 2530 fps= 14 q=31.0 size=    6144kB time=00:00:41.41 bitrate=1215.3kbits/s speed=0.23x    frame= 2538 fps= 14 q=31.0 size=    6144kB time=00:00:41.55 bitrate=1211.4kbits/s speed=0.23x    frame= 2545 fps= 14 q=31.0 size=    6144kB time=00:00:41.66 bitrate=1208.0kbits/s speed=0.23x    frame= 2552 fps= 14 q=31.0 size=    6144kB time=00:00:41.78 bitrate=1204.6kbits/s speed=0.23x    frame= 2559 fps= 14 q=31.0 size=    6144kB time=00:00:41.90 bitrate=1201.2kbits/s speed=0.23x    frame= 2566 fps= 14 q=31.0 size=    6144kB time=00:00:42.01 bitrate=1197.9kbits/s speed=0.23x    frame= 2572 fps= 14 q=31.0 size=    6144kB time=00:00:42.11 bitrate=1195.1kbits/s speed=0.23x    frame= 2579 fps= 14 q=31.0 size=    6144kB time=00:00:42.23 bitrate=1191.8kbits/s speed=0.23x    frame= 2585 fps= 14 q=31.0 size=    6144kB time=00:00:42.33 bitrate=1188.9kbits/s speed=0.23x    frame= 2591 fps= 14 q=31.0 size=    6144kB time=00:00:42.43 bitrate=1186.1kbits/s speed=0.23x    frame= 2598 fps= 14 q=31.0 size=    6144kB time=00:00:42.55 bitrate=1182.9kbits/s speed=0.229x    frame= 2605 fps= 14 q=31.0 size=    6144kB time=00:00:42.66 bitrate=1179.7kbits/s speed=0.229x    frame= 2612 fps= 14 q=31.0 size=    6144kB time=00:00:42.78 bitrate=1176.4kbits/s speed=0.229x    frame= 2619 fps= 14 q=31.0 size=    6144kB time=00:00:42.90 bitrate=1173.2kbits/s speed=0.229x    frame= 2626 fps= 14 q=31.0 size=    6144kB time=00:00:43.01 bitrate=1170.1kbits/s speed=0.229x    frame= 2633 fps= 14 q=31.0 size=    6400kB time=00:00:43.13 bitrate=1215.5kbits/s speed=0.229x    frame= 2639 fps= 14 q=31.0 size=    6400kB time=00:00:43.23 bitrate=1212.7kbits/s speed=0.229x    frame= 2646 fps= 14 q=31.0 size=    6400kB time=00:00:43.35 bitrate=1209.4kbits/s speed=0.229x    frame= 2653 fps= 14 q=31.0 size=    6400kB time=00:00:43.46 bitrate=1206.2kbits/s speed=0.229x    frame= 2660 fps= 14 q=31.0 size=    6400kB time=00:00:43.58 bitrate=1203.0kbits/s speed=0.229x    frame= 2667 fps= 14 q=31.0 size=    6400kB time=00:00:43.70 bitrate=1199.8kbits/s speed=0.229x    frame= 2674 fps= 14 q=31.0 size=    6400kB time=00:00:43.81 bitrate=1196.6kbits/s speed=0.229x    frame= 2681 fps= 14 q=31.0 size=    6400kB time=00:00:43.93 bitrate=1193.4kbits/s speed=0.229x    frame= 2688 fps= 14 q=31.0 size=    6400kB time=00:00:44.05 bitrate=1190.2kbits/s speed=0.229x    frame= 2695 fps= 14 q=31.0 size=    6400kB time=00:00:44.16 bitrate=1187.1kbits/s speed=0.228x    frame= 2702 fps= 14 q=31.0 size=    6400kB time=00:00:44.28 bitrate=1183.9kbits/s speed=0.228x    frame= 2709 fps= 14 q=31.0 size=    6400kB time=00:00:44.40 bitrate=1180.8kbits/s speed=0.228x    frame= 2716 fps= 14 q=31.0 size=    6400kB time=00:00:44.51 bitrate=1177.7kbits/s speed=0.228x    frame= 2723 fps= 14 q=31.0 size=    6656kB time=00:00:44.63 bitrate=1221.6kbits/s speed=0.228x    frame= 2729 fps= 14 q=31.0 size=    6656kB time=00:00:44.73 bitrate=1218.9kbits/s speed=0.228x    frame= 2735 fps= 14 q=31.0 size=    6656kB time=00:00:44.83 bitrate=1216.2kbits/s speed=0.228x    frame= 2742 fps= 14 q=31.0 size=    6656kB time=00:00:44.95 bitrate=1213.0kbits/s speed=0.228x    frame= 2749 fps= 14 q=31.0 size=    6656kB time=00:00:45.06 bitrate=1209.9kbits/s speed=0.228x    frame= 2756 fps= 14 q=31.0 size=    6656kB time=00:00:45.18 bitrate=1206.8kbits/s speed=0.228x    [NULL @ 0x7f9cd898f500] Invalid maxval: 0
    Last message repeated 1 times
frame= 2763 fps= 14 q=31.0 size=    6656kB time=00:00:45.30 bitrate=1203.7kbits/s speed=0.228x    frame= 2770 fps= 14 q=31.0 size=    6656kB time=00:00:45.41 bitrate=1200.6kbits/s speed=0.228x    frame= 2777 fps= 14 q=31.0 size=    6656kB time=00:00:45.53 bitrate=1197.5kbits/s speed=0.228x    frame= 2785 fps= 14 q=31.0 size=    6656kB time=00:00:45.66 bitrate=1194.0kbits/s speed=0.228x    frame= 2792 fps= 14 q=31.0 size=    6656kB time=00:00:45.78 bitrate=1191.0kbits/s speed=0.228x    frame= 2797 fps= 14 q=31.0 size=    6656kB time=00:00:45.86 bitrate=1188.8kbits/s speed=0.228x    frame= 2803 fps= 14 q=31.0 size=    6656kB time=00:00:45.96 bitrate=1186.2kbits/s speed=0.228x    frame= 2809 fps= 14 q=31.0 size=    6656kB time=00:00:46.06 bitrate=1183.6kbits/s speed=0.228x    frame= 2815 fps= 14 q=31.0 size=    6656kB time=00:00:46.16 bitrate=1181.1kbits/s speed=0.228x    frame= 2822 fps= 14 q=31.0 size=    6656kB time=00:00:46.28 bitrate=1178.1kbits/s speed=0.227x    frame= 2829 fps= 14 q=31.0 size=    6656kB time=00:00:46.40 bitrate=1175.1kbits/s speed=0.227x    frame= 2836 fps= 14 q=31.0 size=    6656kB time=00:00:46.51 bitrate=1172.2kbits/s speed=0.227x    frame= 2843 fps= 14 q=31.0 size=    6912kB time=00:00:46.63 bitrate=1214.2kbits/s speed=0.227x    frame= 2850 fps= 14 q=31.0 size=    6912kB time=00:00:46.75 bitrate=1211.2kbits/s speed=0.227x    frame= 2858 fps= 14 q=31.0 size=    6912kB time=00:00:46.88 bitrate=1207.8kbits/s speed=0.227x    frame= 2866 fps= 14 q=31.0 size=    6912kB time=00:00:47.01 bitrate=1204.3kbits/s speed=0.227x    frame= 2872 fps= 14 q=31.0 size=    6912kB time=00:00:47.11 bitrate=1201.8kbits/s speed=0.227x    frame= 2879 fps= 14 q=31.0 size=    6912kB time=00:00:47.23 bitrate=1198.8kbits/s speed=0.227x    frame= 2885 fps= 14 q=31.0 size=    6912kB time=00:00:47.33 bitrate=1196.3kbits/s speed=0.227x    frame= 2892 fps= 14 q=31.0 size=    6912kB time=00:00:47.45 bitrate=1193.3kbits/s speed=0.227x    frame= 2901 fps= 14 q=31.0 size=    6912kB time=00:00:47.60 bitrate=1189.6kbits/s speed=0.227x    frame= 2908 fps= 14 q=31.0 size=    6912kB time=00:00:47.71 bitrate=1186.7kbits/s speed=0.227x    frame= 2915 fps= 14 q=31.0 size=    6912kB time=00:00:47.83 bitrate=1183.8kbits/s speed=0.227x    frame= 2919 fps= 14 q=31.0 size=    6912kB time=00:00:47.90 bitrate=1182.1kbits/s speed=0.227x    frame= 2926 fps= 14 q=31.0 size=    6912kB time=00:00:48.01 bitrate=1179.2kbits/s speed=0.227x    frame= 2932 fps= 14 q=31.0 size=    6912kB time=00:00:48.11 bitrate=1176.8kbits/s speed=0.227x    frame= 2939 fps= 14 q=31.0 size=    6912kB time=00:00:48.23 bitrate=1173.9kbits/s speed=0.227x    frame= 2946 fps= 14 q=31.0 size=    6912kB time=00:00:48.35 bitrate=1171.1kbits/s speed=0.227x    frame= 2953 fps= 14 q=31.0 size=    6912kB time=00:00:48.46 bitrate=1168.3kbits/s speed=0.227x    frame= 2960 fps= 14 q=31.0 size=    6912kB time=00:00:48.58 bitrate=1165.5kbits/s speed=0.227x    frame= 2967 fps= 14 q=31.0 size=    6912kB time=00:00:48.70 bitrate=1162.7kbits/s speed=0.227x    frame= 2975 fps= 14 q=31.0 size=    6912kB time=00:00:48.83 bitrate=1159.5kbits/s speed=0.227x    frame= 2982 fps= 14 q=31.0 size=    6912kB time=00:00:48.95 bitrate=1156.8kbits/s speed=0.227x    frame= 2989 fps= 14 q=31.0 size=    6912kB time=00:00:49.06 bitrate=1154.0kbits/s speed=0.227x    frame= 2995 fps= 14 q=31.0 size=    6912kB time=00:00:49.16 bitrate=1151.7kbits/s speed=0.227x    frame= 3002 fps= 14 q=31.0 size=    6912kB time=00:00:49.28 bitrate=1148.9kbits/s speed=0.227x    frame= 3008 fps= 14 q=31.0 size=    6912kB time=00:00:49.38 bitrate=1146.6kbits/s speed=0.227x    frame= 3016 fps= 14 q=29.0 size=    6912kB time=00:00:49.51 bitrate=1143.5kbits/s speed=0.227x    frame= 3023 fps= 14 q=31.0 size=    7168kB time=00:00:49.63 bitrate=1183.1kbits/s speed=0.227x    frame= 3031 fps= 14 q=31.0 size=    7168kB time=00:00:49.76 bitrate=1179.9kbits/s speed=0.227x    frame= 3038 fps= 14 q=31.0 size=    7168kB time=00:00:49.88 bitrate=1177.2kbits/s speed=0.227x    frame= 3046 fps= 14 q=31.0 size=    7168kB time=00:00:50.01 bitrate=1174.0kbits/s speed=0.227x    frame= 3053 fps= 14 q=31.0 size=    7168kB time=00:00:50.13 bitrate=1171.3kbits/s speed=0.227x    frame= 3060 fps= 14 q=31.0 size=    7168kB time=00:00:50.25 bitrate=1168.6kbits/s speed=0.227x    frame= 3067 fps= 14 q=31.0 size=    7168kB time=00:00:50.36 bitrate=1165.9kbits/s speed=0.226x    frame= 3073 fps= 14 q=31.0 size=    7168kB time=00:00:50.46 bitrate=1163.6kbits/s speed=0.226x    frame= 3080 fps= 14 q=31.0 size=    7168kB time=00:00:50.58 bitrate=1160.9kbits/s speed=0.226x    frame= 3088 fps= 14 q=31.0 size=    7168kB time=00:00:50.71 bitrate=1157.8kbits/s speed=0.226x    frame= 3095 fps= 14 q=31.0 size=    7168kB time=00:00:50.83 bitrate=1155.2kbits/s speed=0.226x    frame= 3101 fps= 14 q=31.0 size=    7168kB time=00:00:50.93 bitrate=1152.9kbits/s speed=0.226x    frame= 3107 fps= 14 q=31.0 size=    7168kB time=00:00:51.03 bitrate=1150.6kbits/s speed=0.226x    frame= 3113 fps= 14 q=31.0 size=    7168kB time=00:00:51.13 bitrate=1148.4kbits/s speed=0.226x    frame= 3119 fps= 14 q=31.0 size=    7168kB time=00:00:51.23 bitrate=1146.1kbits/s speed=0.226x    frame= 3125 fps= 14 q=31.0 size=    7168kB time=00:00:51.33 bitrate=1143.9kbits/s speed=0.226x    frame= 3132 fps= 14 q=31.0 size=    7168kB time=00:00:51.45 bitrate=1141.3kbits/s speed=0.226x    frame= 3138 fps= 14 q=31.0 size=    7168kB time=00:00:51.55 bitrate=1139.1kbits/s speed=0.226x    frame= 3144 fps= 14 q=31.0 size=    7168kB time=00:00:51.65 bitrate=1136.9kbits/s speed=0.226x    frame= 3150 fps= 14 q=31.0 size=    7424kB time=00:00:51.75 bitrate=1175.2kbits/s speed=0.226x    frame= 3156 fps= 14 q=31.0 size=    7424kB time=00:00:51.85 bitrate=1173.0kbits/s speed=0.225x    frame= 3162 fps= 14 q=31.0 size=    7424kB time=00:00:51.95 bitrate=1170.7kbits/s speed=0.225x    frame= 3169 fps= 14 q=31.0 size=    7424kB time=00:00:52.06 bitrate=1168.1kbits/s speed=0.225x    frame= 3175 fps= 14 q=31.0 size=    7424kB time=00:00:52.16 bitrate=1165.8kbits/s speed=0.225x    frame= 3182 fps= 14 q=31.0 size=    7424kB time=00:00:52.28 bitrate=1163.2kbits/s speed=0.225x    frame= 3188 fps= 14 q=31.0 size=    7424kB time=00:00:52.38 bitrate=1161.0kbits/s speed=0.225x    frame= 3194 fps= 14 q=31.0 size=    7424kB time=00:00:52.48 bitrate=1158.8kbits/s speed=0.225x    frame= 3200 fps= 14 q=31.0 size=    7424kB time=00:00:52.58 bitrate=1156.6kbits/s speed=0.225x    frame= 3206 fps= 14 q=31.0 size=    7424kB time=00:00:52.68 bitrate=1154.4kbits/s speed=0.225x    frame= 3212 fps= 14 q=31.0 size=    7424kB time=00:00:52.78 bitrate=1152.2kbits/s speed=0.225x    frame= 3218 fps= 14 q=31.0 size=    7424kB time=00:00:52.88 bitrate=1150.0kbits/s speed=0.225x    frame= 3224 fps= 14 q=31.0 size=    7680kB time=00:00:52.98 bitrate=1187.4kbits/s speed=0.225x    frame= 3230 fps= 14 q=31.0 size=    7680kB time=00:00:53.08 bitrate=1185.2kbits/s speed=0.224x    frame= 3236 fps= 14 q=31.0 size=    7680kB time=00:00:53.18 bitrate=1183.0kbits/s speed=0.224x    frame= 3242 fps= 14 q=31.0 size=    7680kB time=00:00:53.28 bitrate=1180.8kbits/s speed=0.224x    frame= 3248 fps= 14 q=31.0 size=    7680kB time=00:00:53.38 bitrate=1178.5kbits/s speed=0.224x    frame= 3254 fps= 14 q=31.0 size=    7680kB time=00:00:53.48 bitrate=1176.3kbits/s speed=0.224x    frame= 3260 fps= 14 q=31.0 size=    7680kB time=00:00:53.58 bitrate=1174.1kbits/s speed=0.224x    frame= 3266 fps= 14 q=29.0 size=    7680kB time=00:00:53.68 bitrate=1172.0kbits/s speed=0.224x    frame= 3272 fps= 14 q=31.0 size=    7680kB time=00:00:53.78 bitrate=1169.8kbits/s speed=0.224x    frame= 3278 fps= 14 q=31.0 size=    7680kB time=00:00:53.88 bitrate=1167.6kbits/s speed=0.224x    frame= 3284 fps= 14 q=31.0 size=    7680kB time=00:00:53.98 bitrate=1165.4kbits/s speed=0.224x    frame= 3291 fps= 14 q=31.0 size=    7680kB time=00:00:54.10 bitrate=1162.9kbits/s speed=0.224x    frame= 3300 fps= 14 q=31.0 size=    7936kB time=00:00:54.25 bitrate=1198.4kbits/s speed=0.224x    frame= 3306 fps= 14 q=31.0 size=    7936kB time=00:00:54.35 bitrate=1196.2kbits/s speed=0.224x    frame= 3312 fps= 14 q=31.0 size=    7936kB time=00:00:54.45 bitrate=1194.0kbits/s speed=0.224x    frame= 3318 fps= 14 q=31.0 size=    7936kB time=00:00:54.55 bitrate=1191.8kbits/s speed=0.223x    frame= 3324 fps= 14 q=31.0 size=    7936kB time=00:00:54.65 bitrate=1189.6kbits/s speed=0.223x    frame= 3330 fps= 14 q=31.0 size=    7936kB time=00:00:54.75 bitrate=1187.4kbits/s speed=0.223x    frame= 3336 fps= 14 q=31.0 size=    7936kB time=00:00:54.85 bitrate=1185.3kbits/s speed=0.223x    frame= 3342 fps= 14 q=31.0 size=    7936kB time=00:00:54.95 bitrate=1183.1kbits/s speed=0.223x    frame= 3348 fps= 14 q=31.0 size=    7936kB time=00:00:55.05 bitrate=1181.0kbits/s speed=0.223x    frame= 3354 fps= 14 q=31.0 size=    7936kB time=00:00:55.15 bitrate=1178.8kbits/s speed=0.223x    frame= 3360 fps= 14 q=31.0 size=    7936kB time=00:00:55.25 bitrate=1176.7kbits/s speed=0.223x    frame= 3366 fps= 14 q=31.0 size=    7936kB time=00:00:55.35 bitrate=1174.6kbits/s speed=0.223x    frame= 3372 fps= 14 q=31.0 size=    7936kB time=00:00:55.45 bitrate=1172.4kbits/s speed=0.223x    frame= 3378 fps= 14 q=31.0 size=    8192kB time=00:00:55.55 bitrate=1208.1kbits/s speed=0.223x    frame= 3384 fps= 14 q=31.0 size=    8192kB time=00:00:55.65 bitrate=1205.9kbits/s speed=0.223x    frame= 3390 fps= 14 q=31.0 size=    8192kB time=00:00:55.75 bitrate=1203.8kbits/s speed=0.222x    frame= 3397 fps= 14 q=31.0 size=    8192kB time=00:00:55.86 bitrate=1201.2kbits/s speed=0.222x    frame= 3403 fps= 14 q=31.0 size=    8192kB time=00:00:55.96 bitrate=1199.1kbits/s speed=0.222x    frame= 3409 fps= 14 q=31.0 size=    8192kB time=00:00:56.06 bitrate=1197.0kbits/s speed=0.222x    frame= 3416 fps= 14 q=31.0 size=    8192kB time=00:00:56.18 bitrate=1194.5kbits/s speed=0.222x    frame= 3421 fps= 14 q=31.0 size=    8192kB time=00:00:56.26 bitrate=1192.7kbits/s speed=0.222x    frame= 3427 fps= 14 q=31.0 size=    8192kB time=00:00:56.36 bitrate=1190.6kbits/s speed=0.222x    frame= 3433 fps= 13 q=31.0 size=    8192kB time=00:00:56.46 bitrate=1188.5kbits/s speed=0.222x    frame= 3439 fps= 13 q=31.0 size=    8448kB time=00:00:56.56 bitrate=1223.4kbits/s speed=0.222x    frame= 3445 fps= 13 q=31.0 size=    8448kB time=00:00:56.66 bitrate=1221.3kbits/s speed=0.222x    frame= 3451 fps= 13 q=31.0 size=    8448kB time=00:00:56.76 bitrate=1219.1kbits/s speed=0.222x    frame= 3457 fps= 13 q=31.0 size=    8448kB time=00:00:56.86 bitrate=1217.0kbits/s speed=0.222x    frame= 3463 fps= 13 q=31.0 size=    8448kB time=00:00:56.96 bitrate=1214.9kbits/s speed=0.222x    frame= 3469 fps= 13 q=31.0 size=    8448kB time=00:00:57.06 bitrate=1212.7kbits/s speed=0.222x    frame= 3475 fps= 13 q=31.0 size=    8448kB time=00:00:57.16 bitrate=1210.6kbits/s speed=0.222x    frame= 3482 fps= 13 q=31.0 size=    8448kB time=00:00:57.28 bitrate=1208.1kbits/s speed=0.221x    frame= 3488 fps= 13 q=31.0 size=    8448kB time=00:00:57.38 bitrate=1206.0kbits/s speed=0.221x    frame= 3494 fps= 13 q=31.0 size=    8448kB time=00:00:57.48 bitrate=1203.9kbits/s speed=0.221x    frame= 3501 fps= 13 q=31.0 size=    8448kB time=00:00:57.60 bitrate=1201.5kbits/s speed=0.221x    frame= 3507 fps= 13 q=31.0 size=    8448kB time=00:00:57.70 bitrate=1199.4kbits/s speed=0.221x    frame= 3513 fps= 13 q=31.0 size=    8448kB time=00:00:57.80 bitrate=1197.3kbits/s speed=0.221x    frame= 3519 fps= 13 q=31.0 size=    8704kB time=00:00:57.90 bitrate=1231.5kbits/s speed=0.221x    frame= 3526 fps= 13 q=31.0 size=    8704kB time=00:00:58.01 bitrate=1229.0kbits/s speed=0.221x    frame= 3532 fps= 13 q=31.0 size=    8704kB time=00:00:58.11 bitrate=1226.9kbits/s speed=0.221x    frame= 3539 fps= 13 q=31.0 size=    8704kB time=00:00:58.23 bitrate=1224.4kbits/s speed=0.221x    frame= 3546 fps= 13 q=31.0 size=    8704kB time=00:00:58.35 bitrate=1222.0kbits/s speed=0.221x    frame= 3551 fps= 13 q=31.0 size=    8704kB time=00:00:58.43 bitrate=1220.3kbits/s speed=0.221x    frame= 3557 fps= 13 q=31.0 size=    8704kB time=00:00:58.53 bitrate=1218.2kbits/s speed=0.221x    frame= 3564 fps= 13 q=31.0 size=    8704kB time=00:00:58.65 bitrate=1215.7kbits/s speed=0.221x    frame= 3570 fps= 13 q=31.0 size=    8704kB time=00:00:58.75 bitrate=1213.7kbits/s speed=0.221x    frame= 3577 fps= 13 q=31.0 size=    8704kB time=00:00:58.86 bitrate=1211.3kbits/s speed=0.221x    frame= 3583 fps= 13 q=31.0 size=    8704kB time=00:00:58.96 bitrate=1209.2kbits/s speed=0.221x    frame= 3589 fps= 13 q=31.0 size=    8704kB time=00:00:59.06 bitrate=1207.2kbits/s speed=0.221x    frame= 3595 fps= 13 q=31.0 size=    8704kB time=00:00:59.16 bitrate=1205.1kbits/s speed=0.22x    frame= 3601 fps= 13 q=31.0 size=    8704kB time=00:00:59.26 bitrate=1203.1kbits/s speed=0.22x    frame= 3606 fps= 13 q=31.0 size=    8960kB time=00:00:59.35 bitrate=1236.7kbits/s speed=0.22x    frame= 3612 fps= 13 q=31.0 size=    8960kB time=00:00:59.45 bitrate=1234.7kbits/s speed=0.22x    frame= 3618 fps= 13 q=31.0 size=    8960kB time=00:00:59.55 bitrate=1232.6kbits/s speed=0.22x    frame= 3624 fps= 13 q=31.0 size=    8960kB time=00:00:59.65 bitrate=1230.5kbits/s speed=0.22x    frame= 3630 fps= 13 q=31.0 size=    8960kB time=00:00:59.75 bitrate=1228.5kbits/s speed=0.22x    frame= 3636 fps= 13 q=31.0 size=    8960kB time=00:00:59.85 bitrate=1226.4kbits/s speed=0.22x    frame= 3642 fps= 13 q=31.0 size=    8960kB time=00:00:59.95 bitrate=1224.4kbits/s speed=0.22x    frame= 3648 fps= 13 q=31.0 size=    8960kB time=00:01:00.05 bitrate=1222.3kbits/s speed=0.22x    frame= 3654 fps= 13 q=31.0 size=    8960kB time=00:01:00.15 bitrate=1220.3kbits/s speed=0.22x    frame= 3660 fps= 13 q=31.0 size=    8960kB time=00:01:00.25 bitrate=1218.3kbits/s speed=0.22x    frame= 3666 fps= 13 q=31.0 size=    9216kB time=00:01:00.35 bitrate=1251.0kbits/s speed=0.22x    frame= 3672 fps= 13 q=31.0 size=    9216kB time=00:01:00.45 bitrate=1248.9kbits/s speed=0.219x    frame= 3678 fps= 13 q=31.0 size=    9216kB time=00:01:00.55 bitrate=1246.9kbits/s speed=0.219x    frame= 3684 fps= 13 q=31.0 size=    9216kB time=00:01:00.65 bitrate=1244.8kbits/s speed=0.219x    frame= 3690 fps= 13 q=31.0 size=    9216kB time=00:01:00.75 bitrate=1242.8kbits/s speed=0.219x    frame= 3696 fps= 13 q=31.0 size=    9216kB time=00:01:00.85 bitrate=1240.7kbits/s speed=0.219x    frame= 3702 fps= 13 q=31.0 size=    9216kB time=00:01:00.95 bitrate=1238.7kbits/s speed=0.219x    frame= 3708 fps= 13 q=31.0 size=    9216kB time=00:01:01.05 bitrate=1236.7kbits/s speed=0.219x    frame= 3714 fps= 13 q=31.0 size=    9216kB time=00:01:01.15 bitrate=1234.6kbits/s speed=0.219x    frame= 3720 fps= 13 q=31.0 size=    9216kB time=00:01:01.25 bitrate=1232.6kbits/s speed=0.219x    frame= 3726 fps= 13 q=31.0 size=    9216kB time=00:01:01.35 bitrate=1230.6kbits/s speed=0.219x    frame= 3732 fps= 13 q=31.0 size=    9472kB time=00:01:01.45 bitrate=1262.7kbits/s speed=0.219x    frame= 3738 fps= 13 q=31.0 size=    9472kB time=00:01:01.55 bitrate=1260.7kbits/s speed=0.219x    frame= 3745 fps= 13 q=31.0 size=    9472kB time=00:01:01.66 bitrate=1258.3kbits/s speed=0.219x    frame= 3751 fps= 13 q=31.0 size=    9472kB time=00:01:01.76 bitrate=1256.3kbits/s speed=0.219x    frame= 3756 fps= 13 q=31.0 size=    9472kB time=00:01:01.85 bitrate=1254.6kbits/s speed=0.219x    frame= 3762 fps= 13 q=31.0 size=    9472kB time=00:01:01.95 bitrate=1252.5kbits/s speed=0.219x    frame= 3768 fps= 13 q=31.0 size=    9472kB time=00:01:02.05 bitrate=1250.5kbits/s speed=0.218x    frame= 3775 fps= 13 q=31.0 size=    9472kB time=00:01:02.16 bitrate=1248.2kbits/s speed=0.218x    frame= 3782 fps= 13 q=31.0 size=    9472kB time=00:01:02.28 bitrate=1245.8kbits/s speed=0.218x    frame= 3789 fps= 13 q=31.0 size=    9472kB time=00:01:02.40 bitrate=1243.5kbits/s speed=0.218x    frame= 3795 fps= 13 q=31.0 size=    9472kB time=00:01:02.50 bitrate=1241.5kbits/s speed=0.218x    frame= 3802 fps= 13 q=31.0 size=    9472kB time=00:01:02.61 bitrate=1239.2kbits/s speed=0.218x    frame= 3809 fps= 13 q=31.0 size=    9472kB time=00:01:02.73 bitrate=1236.9kbits/s speed=0.218x    frame= 3815 fps= 13 q=31.0 size=    9472kB time=00:01:02.83 bitrate=1234.9kbits/s speed=0.218x    frame= 3821 fps= 13 q=31.0 size=    9728kB time=00:01:02.93 bitrate=1266.3kbits/s speed=0.218x    frame= 3827 fps= 13 q=31.0 size=    9728kB time=00:01:03.03 bitrate=1264.3kbits/s speed=0.218x    frame= 3833 fps= 13 q=31.0 size=    9728kB time=00:01:03.13 bitrate=1262.3kbits/s speed=0.218x    frame= 3839 fps= 13 q=31.0 size=    9728kB time=00:01:03.23 bitrate=1260.3kbits/s speed=0.218x    frame= 3845 fps= 13 q=31.0 size=    9728kB time=00:01:03.33 bitrate=1258.3kbits/s speed=0.218x    frame= 3851 fps= 13 q=31.0 size=    9728kB time=00:01:03.43 bitrate=1256.3kbits/s speed=0.218x    frame= 3857 fps= 13 q=31.0 size=    9728kB time=00:01:03.53 bitrate=1254.3kbits/s speed=0.218x    frame= 3863 fps= 13 q=31.0 size=    9728kB time=00:01:03.63 bitrate=1252.4kbits/s speed=0.218x    frame= 3869 fps= 13 q=31.0 size=    9728kB time=00:01:03.73 bitrate=1250.4kbits/s speed=0.218x    frame= 3875 fps= 13 q=31.0 size=    9728kB time=00:01:03.83 bitrate=1248.4kbits/s speed=0.217x    frame= 3881 fps= 13 q=31.0 size=    9984kB time=00:01:03.93 bitrate=1279.3kbits/s speed=0.217x    frame= 3887 fps= 13 q=31.0 size=    9984kB time=00:01:04.03 bitrate=1277.3kbits/s speed=0.217x    frame= 3893 fps= 13 q=31.0 size=    9984kB time=00:01:04.13 bitrate=1275.3kbits/s speed=0.217x    frame= 3899 fps= 13 q=31.0 size=    9984kB time=00:01:04.23 bitrate=1273.3kbits/s speed=0.217x    frame= 3905 fps= 13 q=31.0 size=    9984kB time=00:01:04.33 bitrate=1271.3kbits/s speed=0.217x    frame= 3910 fps= 13 q=31.0 size=    9984kB time=00:01:04.41 bitrate=1269.7kbits/s speed=0.217x    frame= 3916 fps= 13 q=31.0 size=    9984kB time=00:01:04.51 bitrate=1267.7kbits/s speed=0.217x    frame= 3921 fps= 13 q=31.0 size=    9984kB time=00:01:04.60 bitrate=1266.1kbits/s speed=0.217x    frame= 3927 fps= 13 q=31.0 size=   10240kB time=00:01:04.70 bitrate=1296.5kbits/s speed=0.217x    frame= 3933 fps= 13 q=31.0 size=   10240kB time=00:01:04.80 bitrate=1294.5kbits/s speed=0.217x    frame= 3939 fps= 13 q=31.0 size=   10240kB time=00:01:04.90 bitrate=1292.5kbits/s speed=0.217x    frame= 3945 fps= 13 q=31.0 size=   10240kB time=00:01:05.00 bitrate=1290.6kbits/s speed=0.217x    frame= 3951 fps= 13 q=31.0 size=   10240kB time=00:01:05.10 bitrate=1288.6kbits/s speed=0.217x    frame= 3957 fps= 13 q=31.0 size=   10240kB time=00:01:05.20 bitrate=1286.6kbits/s speed=0.216x    frame= 3962 fps= 13 q=31.0 size=   10240kB time=00:01:05.28 bitrate=1285.0kbits/s speed=0.216x    frame= 3968 fps= 13 q=31.0 size=   10240kB time=00:01:05.38 bitrate=1283.0kbits/s speed=0.216x    frame= 3974 fps= 13 q=31.0 size=   10240kB time=00:01:05.48 bitrate=1281.0kbits/s speed=0.216x    frame= 3981 fps= 13 q=31.0 size=   10240kB time=00:01:05.60 bitrate=1278.8kbits/s speed=0.216x    frame= 3986 fps= 13 q=31.0 size=   10496kB time=00:01:05.68 bitrate=1309.1kbits/s speed=0.216x    frame= 3992 fps= 13 q=31.0 size=   10496kB time=00:01:05.78 bitrate=1307.1kbits/s speed=0.216x    frame= 3998 fps= 13 q=31.0 size=   10496kB time=00:01:05.88 bitrate=1305.1kbits/s speed=0.216x    frame= 4004 fps= 13 q=31.0 size=   10496kB time=00:01:05.98 bitrate=1303.1kbits/s speed=0.216x    frame= 4010 fps= 13 q=31.0 size=   10496kB time=00:01:06.08 bitrate=1301.1kbits/s speed=0.216x    frame= 4016 fps= 13 q=29.0 size=   10496kB time=00:01:06.18 bitrate=1299.2kbits/s speed=0.216x    frame= 4023 fps= 13 q=31.0 size=   10496kB time=00:01:06.30 bitrate=1296.9kbits/s speed=0.216x    frame= 4029 fps= 13 q=31.0 size=   10496kB time=00:01:06.40 bitrate=1294.9kbits/s speed=0.216x    frame= 4035 fps= 13 q=31.0 size=   10496kB time=00:01:06.50 bitrate=1293.0kbits/s speed=0.216x    frame= 4042 fps= 13 q=31.0 size=   10496kB time=00:01:06.61 bitrate=1290.7kbits/s speed=0.216x    frame= 4048 fps= 13 q=31.0 size=   10496kB time=00:01:06.71 bitrate=1288.8kbits/s speed=0.216x    frame= 4054 fps= 13 q=31.0 size=   10752kB time=00:01:06.81 bitrate=1318.2kbits/s speed=0.216x    frame= 4060 fps= 13 q=31.0 size=   10752kB time=00:01:06.91 bitrate=1316.3kbits/s speed=0.215x    frame= 4066 fps= 13 q=31.0 size=   10752kB time=00:01:07.01 bitrate=1314.3kbits/s speed=0.215x    frame= 4072 fps= 13 q=31.0 size=   10752kB time=00:01:07.11 bitrate=1312.4kbits/s speed=0.215x    frame= 4078 fps= 13 q=31.0 size=   10752kB time=00:01:07.21 bitrate=1310.4kbits/s speed=0.215x    frame= 4084 fps= 13 q=31.0 size=   10752kB time=00:01:07.31 bitrate=1308.5kbits/s speed=0.215x    frame= 4090 fps= 13 q=31.0 size=   10752kB time=00:01:07.41 bitrate=1306.5kbits/s speed=0.215x    frame= 4096 fps= 13 q=31.0 size=   10752kB time=00:01:07.51 bitrate=1304.6kbits/s speed=0.215x    frame= 4102 fps= 13 q=31.0 size=   10752kB time=00:01:07.61 bitrate=1302.6kbits/s speed=0.215x    frame= 4108 fps= 13 q=31.0 size=   10752kB time=00:01:07.71 bitrate=1300.7kbits/s speed=0.215x    frame= 4114 fps= 13 q=31.0 size=   11008kB time=00:01:07.81 bitrate=1329.7kbits/s speed=0.215x    frame= 4120 fps= 13 q=31.0 size=   11008kB time=00:01:07.91 bitrate=1327.8kbits/s speed=0.215x    frame= 4126 fps= 13 q=31.0 size=   11008kB time=00:01:08.01 bitrate=1325.8kbits/s speed=0.215x    frame= 4132 fps= 13 q=31.0 size=   11008kB time=00:01:08.11 bitrate=1323.9kbits/s speed=0.215x    frame= 4138 fps= 13 q=31.0 size=   11008kB time=00:01:08.21 bitrate=1321.9kbits/s speed=0.215x    frame= 4143 fps= 13 q=31.0 size=   11008kB time=00:01:08.30 bitrate=1320.3kbits/s speed=0.215x    frame= 4149 fps= 13 q=31.0 size=   11008kB time=00:01:08.40 bitrate=1318.4kbits/s speed=0.214x    frame= 4155 fps= 13 q=31.0 size=   11008kB time=00:01:08.50 bitrate=1316.5kbits/s speed=0.214x    frame= 4161 fps= 13 q=31.0 size=   11008kB time=00:01:08.60 bitrate=1314.5kbits/s speed=0.214x    frame= 4167 fps= 13 q=31.0 size=   11264kB time=00:01:08.70 bitrate=1343.2kbits/s speed=0.214x    frame= 4173 fps= 13 q=31.0 size=   11264kB time=00:01:08.80 bitrate=1341.2kbits/s speed=0.214x    frame= 4179 fps= 13 q=31.0 size=   11264kB time=00:01:08.90 bitrate=1339.3kbits/s speed=0.214x    frame= 4185 fps= 13 q=31.0 size=   11264kB time=00:01:09.00 bitrate=1337.3kbits/s speed=0.214x    frame= 4192 fps= 13 q=31.0 size=   11264kB time=00:01:09.11 bitrate=1335.1kbits/s speed=0.214x    frame= 4198 fps= 13 q=31.0 size=   11264kB time=00:01:09.21 bitrate=1333.1kbits/s speed=0.214x    frame= 4204 fps= 13 q=31.0 size=   11264kB time=00:01:09.31 bitrate=1331.2kbits/s speed=0.214x    frame= 4211 fps= 13 q=31.0 size=   11264kB time=00:01:09.43 bitrate=1329.0kbits/s speed=0.214x    frame= 4218 fps= 13 q=31.0 size=   11264kB time=00:01:09.55 bitrate=1326.7kbits/s speed=0.214x    frame= 4225 fps= 13 q=31.0 size=   11264kB time=00:01:09.66 bitrate=1324.5kbits/s speed=0.214x    frame= 4230 fps= 13 q=31.0 size=   11264kB time=00:01:09.75 bitrate=1322.9kbits/s speed=0.214x    frame= 4236 fps= 13 q=31.0 size=   11264kB time=00:01:09.85 bitrate=1321.0kbits/s speed=0.214x    frame= 4242 fps= 13 q=31.0 size=   11264kB time=00:01:09.95 bitrate=1319.2kbits/s speed=0.214x    frame= 4248 fps= 13 q=31.0 size=   11264kB time=00:01:10.05 bitrate=1317.3kbits/s speed=0.214x    frame= 4254 fps= 13 q=31.0 size=   11264kB time=00:01:10.15 bitrate=1315.4kbits/s speed=0.214x    frame= 4260 fps= 13 q=31.0 size=   11264kB time=00:01:10.25 bitrate=1313.5kbits/s speed=0.214x    frame= 4266 fps= 13 q=29.0 size=   11264kB time=00:01:10.35 bitrate=1311.7kbits/s speed=0.214x    frame= 4273 fps= 13 q=31.0 size=   11520kB time=00:01:10.46 bitrate=1339.2kbits/s speed=0.214x    frame= 4279 fps= 13 q=31.0 size=   11520kB time=00:01:10.56 bitrate=1337.3kbits/s speed=0.214x    frame= 4286 fps= 13 q=31.0 size=   11520kB time=00:01:10.68 bitrate=1335.1kbits/s speed=0.214x    frame= 4292 fps= 13 q=31.0 size=   11520kB time=00:01:10.78 bitrate=1333.3kbits/s speed=0.214x    frame= 4300 fps= 13 q=31.0 size=   11520kB time=00:01:10.91 bitrate=1330.7kbits/s speed=0.214x    frame= 4309 fps= 13 q=31.0 size=   11520kB time=00:01:11.06 bitrate=1327.9kbits/s speed=0.214x    frame= 4316 fps= 13 q=31.0 size=   11520kB time=00:01:11.18 bitrate=1325.8kbits/s speed=0.214x    frame= 4322 fps= 13 q=31.0 size=   11520kB time=00:01:11.28 bitrate=1323.9kbits/s speed=0.214x    frame= 4329 fps= 13 q=31.0 size=   11520kB time=00:01:11.40 bitrate=1321.7kbits/s speed=0.214x    frame= 4335 fps= 13 q=31.0 size=   11520kB time=00:01:11.50 bitrate=1319.9kbits/s speed=0.214x    frame= 4341 fps= 13 q=31.0 size=   11520kB time=00:01:11.60 bitrate=1318.0kbits/s speed=0.214x    frame= 4348 fps= 13 q=31.0 size=   11520kB time=00:01:11.71 bitrate=1315.9kbits/s speed=0.214x    frame= 4354 fps= 13 q=31.0 size=   11520kB time=00:01:11.81 bitrate=1314.1kbits/s speed=0.214x    frame= 4362 fps= 13 q=31.0 size=   11520kB time=00:01:11.95 bitrate=1311.6kbits/s speed=0.214x    frame= 4369 fps= 13 q=31.0 size=   11520kB time=00:01:12.06 bitrate=1309.5kbits/s speed=0.214x    frame= 4375 fps= 13 q=31.0 size=   11520kB time=00:01:12.16 bitrate=1307.7kbits/s speed=0.214x    frame= 4382 fps= 13 q=31.0 size=   11520kB time=00:01:12.28 bitrate=1305.6kbits/s speed=0.214x    frame= 4388 fps= 13 q=31.0 size=   11520kB time=00:01:12.38 bitrate=1303.8kbits/s speed=0.214x    frame= 4395 fps= 13 q=31.0 size=   11520kB time=00:01:12.50 bitrate=1301.7kbits/s speed=0.214x    frame= 4398 fps= 13 q=31.0 size=   11520kB time=00:01:12.55 bitrate=1300.8kbits/s speed=0.213x    frame= 4405 fps= 13 q=31.0 size=   11520kB time=00:01:12.66 bitrate=1298.7kbits/s speed=0.213x    frame= 4411 fps= 13 q=31.0 size=   11520kB time=00:01:12.76 bitrate=1296.9kbits/s speed=0.213x    frame= 4417 fps= 13 q=31.0 size=   11520kB time=00:01:12.86 bitrate=1295.1kbits/s speed=0.213x    frame= 4423 fps= 13 q=31.0 size=   11520kB time=00:01:12.96 bitrate=1293.4kbits/s speed=0.213x    frame= 4429 fps= 13 q=31.0 size=   11520kB time=00:01:13.06 bitrate=1291.6kbits/s speed=0.213x    frame= 4435 fps= 13 q=31.0 size=   11520kB time=00:01:13.16 bitrate=1289.8kbits/s speed=0.213x    frame= 4441 fps= 13 q=31.0 size=   11520kB time=00:01:13.26 bitrate=1288.1kbits/s speed=0.213x    frame= 4448 fps= 13 q=31.0 size=   11776kB time=00:01:13.38 bitrate=1314.6kbits/s speed=0.213x    frame= 4455 fps= 13 q=31.0 size=   11776kB time=00:01:13.50 bitrate=1312.5kbits/s speed=0.213x    frame= 4463 fps= 13 q=31.0 size=   11776kB time=00:01:13.63 bitrate=1310.1kbits/s speed=0.213x    frame= 4471 fps= 13 q=31.0 size=   11776kB time=00:01:13.76 bitrate=1307.8kbits/s speed=0.213x    frame= 4478 fps= 13 q=31.0 size=   11776kB time=00:01:13.88 bitrate=1305.7kbits/s speed=0.213x    frame= 4486 fps= 13 q=31.0 size=   11776kB time=00:01:14.01 bitrate=1303.3kbits/s speed=0.213x    frame= 4492 fps= 13 q=31.0 size=   11776kB time=00:01:14.11 bitrate=1301.6kbits/s speed=0.213x    frame= 4499 fps= 13 q=31.0 size=   11776kB time=00:01:14.23 bitrate=1299.5kbits/s speed=0.213x    frame= 4505 fps= 13 q=31.0 size=   11776kB time=00:01:14.33 bitrate=1297.8kbits/s speed=0.213x    frame= 4512 fps= 13 q=31.0 size=   11776kB time=00:01:14.45 bitrate=1295.8kbits/s speed=0.213x    frame= 4515 fps= 13 q=31.0 size=   11776kB time=00:01:14.50 bitrate=1294.9kbits/s speed=0.213x    frame= 4521 fps= 13 q=31.0 size=   11776kB time=00:01:14.60 bitrate=1293.2kbits/s speed=0.213x    frame= 4526 fps= 13 q=31.0 size=   11776kB time=00:01:14.68 bitrate=1291.7kbits/s speed=0.213x    frame= 4532 fps= 13 q=31.0 size=   11776kB time=00:01:14.78 bitrate=1290.0kbits/s speed=0.213x    frame= 4537 fps= 13 q=31.0 size=   11776kB time=00:01:14.86 bitrate=1288.5kbits/s speed=0.213x    frame= 4543 fps= 13 q=31.0 size=   11776kB time=00:01:14.96 bitrate=1286.8kbits/s speed=0.213x    frame= 4548 fps= 13 q=31.0 size=   11776kB time=00:01:15.05 bitrate=1285.4kbits/s speed=0.213x    frame= 4554 fps= 13 q=31.0 size=   11776kB time=00:01:15.15 bitrate=1283.7kbits/s speed=0.213x    frame= 4560 fps= 13 q=31.0 size=   12032kB time=00:01:15.25 bitrate=1309.9kbits/s speed=0.213x    frame= 4565 fps= 13 q=31.0 size=   12032kB time=00:01:15.33 bitrate=1308.4kbits/s speed=0.213x    frame= 4571 fps= 13 q=31.0 size=   12032kB time=00:01:15.43 bitrate=1306.7kbits/s speed=0.212x    frame= 4577 fps= 13 q=31.0 size=   12032kB time=00:01:15.53 bitrate=1304.9kbits/s speed=0.212x    frame= 4583 fps= 13 q=31.0 size=   12032kB time=00:01:15.63 bitrate=1303.2kbits/s speed=0.212x    frame= 4589 fps= 13 q=31.0 size=   12032kB time=00:01:15.73 bitrate=1301.5kbits/s speed=0.212x    frame= 4594 fps= 13 q=31.0 size=   12032kB time=00:01:15.81 bitrate=1300.1kbits/s speed=0.212x    frame= 4601 fps= 13 q=31.0 size=   12032kB time=00:01:15.93 bitrate=1298.1kbits/s speed=0.212x    frame= 4607 fps= 13 q=31.0 size=   12288kB time=00:01:16.03 bitrate=1323.9kbits/s speed=0.212x    frame= 4613 fps= 13 q=31.0 size=   12288kB time=00:01:16.13 bitrate=1322.2kbits/s speed=0.212x    frame= 4619 fps= 13 q=31.0 size=   12288kB time=00:01:16.23 bitrate=1320.5kbits/s speed=0.212x    frame= 4625 fps= 13 q=31.0 size=   12288kB time=00:01:16.33 bitrate=1318.7kbits/s speed=0.212x    frame= 4631 fps= 13 q=31.0 size=   12288kB time=00:01:16.43 bitrate=1317.0kbits/s speed=0.212x    frame= 4637 fps= 13 q=31.0 size=   12288kB time=00:01:16.53 bitrate=1315.3kbits/s speed=0.212x    frame= 4643 fps= 13 q=31.0 size=   12288kB time=00:01:16.63 bitrate=1313.6kbits/s speed=0.212x    frame= 4649 fps= 13 q=31.0 size=   12288kB time=00:01:16.73 bitrate=1311.9kbits/s speed=0.212x    frame= 4655 fps= 13 q=31.0 size=   12288kB time=00:01:16.83 bitrate=1310.2kbits/s speed=0.212x    frame= 4661 fps= 13 q=31.0 size=   12288kB time=00:01:16.93 bitrate=1308.5kbits/s speed=0.212x    frame= 4666 fps= 13 q=31.0 size=   12544kB time=00:01:17.01 bitrate=1334.3kbits/s speed=0.212x    frame= 4672 fps= 13 q=31.0 size=   12544kB time=00:01:17.11 bitrate=1332.5kbits/s speed=0.211x    frame= 4678 fps= 13 q=31.0 size=   12544kB time=00:01:17.21 bitrate=1330.8kbits/s speed=0.211x    frame= 4684 fps= 13 q=31.0 size=   12544kB time=00:01:17.31 bitrate=1329.1kbits/s speed=0.211x    frame= 4690 fps= 13 q=31.0 size=   12544kB time=00:01:17.41 bitrate=1327.4kbits/s speed=0.211x    frame= 4696 fps= 13 q=31.0 size=   12544kB time=00:01:17.51 bitrate=1325.7kbits/s speed=0.211x    frame= 4702 fps= 13 q=31.0 size=   12544kB time=00:01:17.61 bitrate=1324.0kbits/s speed=0.211x    frame= 4708 fps= 13 q=31.0 size=   12544kB time=00:01:17.71 bitrate=1322.2kbits/s speed=0.211x    frame= 4714 fps= 13 q=31.0 size=   12544kB time=00:01:17.81 bitrate=1320.5kbits/s speed=0.211x    frame= 4720 fps= 13 q=31.0 size=   12544kB time=00:01:17.91 bitrate=1318.9kbits/s speed=0.211x    frame= 4726 fps= 13 q=31.0 size=   12544kB time=00:01:18.01 bitrate=1317.2kbits/s speed=0.211x    frame= 4732 fps= 13 q=31.0 size=   12544kB time=00:01:18.11 bitrate=1315.5kbits/s speed=0.211x    frame= 4738 fps= 13 q=31.0 size=   12800kB time=00:01:18.21 bitrate=1340.6kbits/s speed=0.211x    frame= 4743 fps= 13 q=31.0 size=   12800kB time=00:01:18.30 bitrate=1339.2kbits/s speed=0.211x    frame= 4749 fps= 13 q=31.0 size=   12800kB time=00:01:18.40 bitrate=1337.5kbits/s speed=0.211x    frame= 4756 fps= 13 q=31.0 size=   12800kB time=00:01:18.51 bitrate=1335.5kbits/s speed=0.211x    frame= 4760 fps= 13 q=31.0 size=   12800kB time=00:01:18.58 bitrate=1334.4kbits/s speed=0.211x    frame= 4766 fps= 13 q=29.0 size=   12800kB time=00:01:18.68 bitrate=1332.7kbits/s speed=0.211x    frame= 4772 fps= 13 q=31.0 size=   12800kB time=00:01:18.78 bitrate=1331.0kbits/s speed=0.211x    frame= 4777 fps= 13 q=31.0 size=   12800kB time=00:01:18.86 bitrate=1329.6kbits/s speed=0.211x    frame= 4783 fps= 13 q=31.0 size=   12800kB time=00:01:18.96 bitrate=1327.9kbits/s speed=0.211x    frame= 4789 fps= 13 q=31.0 size=   12800kB time=00:01:19.06 bitrate=1326.2kbits/s speed=0.21x    frame= 4795 fps= 13 q=31.0 size=   13056kB time=00:01:19.16 bitrate=1351.0kbits/s speed=0.21x    frame= 4801 fps= 13 q=31.0 size=   13056kB time=00:01:19.26 bitrate=1349.3kbits/s speed=0.21x    frame= 4807 fps= 13 q=31.0 size=   13056kB time=00:01:19.36 bitrate=1347.6kbits/s speed=0.21x    frame= 4813 fps= 13 q=31.0 size=   13056kB time=00:01:19.46 bitrate=1345.9kbits/s speed=0.21x    frame= 4819 fps= 13 q=31.0 size=   13056kB time=00:01:19.56 bitrate=1344.2kbits/s speed=0.21x    frame= 4825 fps= 13 q=31.0 size=   13056kB time=00:01:19.66 bitrate=1342.5kbits/s speed=0.21x    frame= 4831 fps= 13 q=31.0 size=   13056kB time=00:01:19.76 bitrate=1340.8kbits/s speed=0.21x    frame= 4836 fps= 13 q=31.0 size=   13056kB time=00:01:19.85 bitrate=1339.4kbits/s speed=0.21x    frame= 4842 fps= 13 q=31.0 size=   13056kB time=00:01:19.95 bitrate=1337.8kbits/s speed=0.21x    frame= 4848 fps= 13 q=31.0 size=   13056kB time=00:01:20.05 bitrate=1336.1kbits/s speed=0.21x    frame= 4854 fps= 13 q=31.0 size=   13056kB time=00:01:20.15 bitrate=1334.4kbits/s speed=0.21x    frame= 4860 fps= 13 q=31.0 size=   13312kB time=00:01:20.25 bitrate=1358.9kbits/s speed=0.21x    frame= 4866 fps= 13 q=31.0 size=   13312kB time=00:01:20.35 bitrate=1357.2kbits/s speed=0.21x    frame= 4872 fps= 13 q=31.0 size=   13312kB time=00:01:20.45 bitrate=1355.5kbits/s speed=0.21x    frame= 4878 fps= 13 q=31.0 size=   13312kB time=00:01:20.55 bitrate=1353.8kbits/s speed=0.21x    frame= 4884 fps= 13 q=31.0 size=   13312kB time=00:01:20.65 bitrate=1352.2kbits/s speed=0.21x    frame= 4890 fps= 13 q=31.0 size=   13312kB time=00:01:20.75 bitrate=1350.5kbits/s speed=0.21x    frame= 4896 fps= 13 q=31.0 size=   13312kB time=00:01:20.85 bitrate=1348.8kbits/s speed=0.21x    frame= 4902 fps= 13 q=31.0 size=   13312kB time=00:01:20.95 bitrate=1347.2kbits/s speed=0.21x    frame= 4909 fps= 13 q=31.0 size=   13312kB time=00:01:21.06 bitrate=1345.2kbits/s speed=0.21x    frame= 4915 fps= 13 q=31.0 size=   13312kB time=00:01:21.16 bitrate=1343.6kbits/s speed=0.21x    frame= 4922 fps= 13 q=31.0 size=   13312kB time=00:01:21.28 bitrate=1341.6kbits/s speed=0.21x    frame= 4929 fps= 13 q=31.0 size=   13312kB time=00:01:21.40 bitrate=1339.7kbits/s speed=0.21x    frame= 4936 fps= 13 q=31.0 size=   13312kB time=00:01:21.51 bitrate=1337.8kbits/s speed=0.21x    frame= 4943 fps= 13 q=31.0 size=   13312kB time=00:01:21.63 bitrate=1335.9kbits/s speed=0.21x    frame= 4947 fps= 13 q=31.0 size=   13312kB time=00:01:21.70 bitrate=1334.8kbits/s speed=0.21x    frame= 4953 fps= 13 q=31.0 size=   13312kB time=00:01:21.80 bitrate=1333.2kbits/s speed=0.209x    frame= 4959 fps= 13 q=31.0 size=   13312kB time=00:01:21.90 bitrate=1331.5kbits/s speed=0.209x    frame= 4965 fps= 13 q=31.0 size=   13312kB time=00:01:22.00 bitrate=1329.9kbits/s speed=0.209x    frame= 4971 fps= 13 q=31.0 size=   13568kB time=00:01:22.10 bitrate=1353.8kbits/s speed=0.209x    frame= 4977 fps= 13 q=31.0 size=   13568kB time=00:01:22.20 bitrate=1352.2kbits/s speed=0.209x    frame= 4983 fps= 13 q=31.0 size=   13568kB time=00:01:22.30 bitrate=1350.5kbits/s speed=0.209x    frame= 4988 fps= 13 q=31.0 size=   13568kB time=00:01:22.38 bitrate=1349.2kbits/s speed=0.209x    frame= 4993 fps= 13 q=31.0 size=   13568kB time=00:01:22.46 bitrate=1347.8kbits/s speed=0.209x    frame= 4999 fps= 13 q=31.0 size=   13568kB time=00:01:22.56 bitrate=1346.2kbits/s speed=0.209x    frame= 5005 fps= 13 q=31.0 size=   13568kB time=00:01:22.66 bitrate=1344.5kbits/s speed=0.209x    frame= 5011 fps= 13 q=31.0 size=   13568kB time=00:01:22.76 bitrate=1342.9kbits/s speed=0.209x    frame= 5016 fps= 13 q=29.0 size=   13568kB time=00:01:22.85 bitrate=1341.6kbits/s speed=0.209x    frame= 5022 fps= 13 q=31.0 size=   13568kB time=00:01:22.95 bitrate=1340.0kbits/s speed=0.209x    frame= 5028 fps= 13 q=31.0 size=   13824kB time=00:01:23.05 bitrate=1363.6kbits/s speed=0.209x    frame= 5033 fps= 13 q=31.0 size=   13824kB time=00:01:23.13 bitrate=1362.2kbits/s speed=0.209x    frame= 5039 fps= 13 q=31.0 size=   13824kB time=00:01:23.23 bitrate=1360.6kbits/s speed=0.209x    frame= 5045 fps= 13 q=31.0 size=   13824kB time=00:01:23.33 bitrate=1359.0kbits/s speed=0.209x    frame= 5051 fps= 13 q=31.0 size=   13824kB time=00:01:23.43 bitrate=1357.3kbits/s speed=0.209x    frame= 5056 fps= 13 q=31.0 size=   13824kB time=00:01:23.51 bitrate=1356.0kbits/s speed=0.209x    frame= 5062 fps= 13 q=31.0 size=   13824kB time=00:01:23.61 bitrate=1354.4kbits/s speed=0.209x    frame= 5067 fps= 13 q=31.0 size=   13824kB time=00:01:23.70 bitrate=1353.0kbits/s speed=0.208x    frame= 5072 fps= 13 q=31.0 size=   13824kB time=00:01:23.78 bitrate=1351.7kbits/s speed=0.208x    frame= 5077 fps= 13 q=31.0 size=   13824kB time=00:01:23.86 bitrate=1350.3kbits/s speed=0.208x    frame= 5082 fps= 13 q=31.0 size=   14080kB time=00:01:23.95 bitrate=1374.0kbits/s speed=0.208x    frame= 5088 fps= 13 q=31.0 size=   14080kB time=00:01:24.05 bitrate=1372.3kbits/s speed=0.208x    frame= 5092 fps= 13 q=31.0 size=   14080kB time=00:01:24.11 bitrate=1371.2kbits/s speed=0.208x    frame= 5098 fps= 13 q=31.0 size=   14080kB time=00:01:24.21 bitrate=1369.6kbits/s speed=0.208x    frame= 5104 fps= 13 q=31.0 size=   14080kB time=00:01:24.31 bitrate=1368.0kbits/s speed=0.208x    frame= 5110 fps= 13 q=31.0 size=   14080kB time=00:01:24.41 bitrate=1366.4kbits/s speed=0.208x    frame= 5116 fps= 13 q=31.0 size=   14080kB time=00:01:24.51 bitrate=1364.7kbits/s speed=0.208x    frame= 5121 fps= 13 q=31.0 size=   14080kB time=00:01:24.60 bitrate=1363.4kbits/s speed=0.208x    frame= 5127 fps= 13 q=31.0 size=   14080kB time=00:01:24.70 bitrate=1361.8kbits/s speed=0.208x    frame= 5133 fps= 13 q=31.0 size=   14080kB time=00:01:24.80 bitrate=1360.2kbits/s speed=0.208x    frame= 5139 fps= 13 q=31.0 size=   14336kB time=00:01:24.90 bitrate=1383.3kbits/s speed=0.208x    frame= 5145 fps= 13 q=31.0 size=   14336kB time=00:01:25.00 bitrate=1381.7kbits/s speed=0.208x    frame= 5151 fps= 13 q=31.0 size=   14336kB time=00:01:25.10 bitrate=1380.0kbits/s speed=0.208x    frame= 5157 fps= 13 q=31.0 size=   14336kB time=00:01:25.20 bitrate=1378.4kbits/s speed=0.208x    frame= 5163 fps= 13 q=31.0 size=   14336kB time=00:01:25.30 bitrate=1376.8kbits/s speed=0.208x    frame= 5169 fps= 13 q=31.0 size=   14336kB time=00:01:25.40 bitrate=1375.2kbits/s speed=0.208x    frame= 5175 fps= 13 q=31.0 size=   14336kB time=00:01:25.50 bitrate=1373.6kbits/s speed=0.208x    frame= 5181 fps= 13 q=31.0 size=   14336kB time=00:01:25.60 bitrate=1372.0kbits/s speed=0.208x    frame= 5187 fps= 13 q=31.0 size=   14336kB time=00:01:25.70 bitrate=1370.4kbits/s speed=0.208x    frame= 5193 fps= 13 q=31.0 size=   14336kB time=00:01:25.80 bitrate=1368.8kbits/s speed=0.208x    frame= 5199 fps= 13 q=31.0 size=   14336kB time=00:01:25.90 bitrate=1367.2kbits/s speed=0.207x    frame= 5205 fps= 13 q=31.0 size=   14336kB time=00:01:26.00 bitrate=1365.6kbits/s speed=0.207x    frame= 5211 fps= 13 q=31.0 size=   14336kB time=00:01:26.10 bitrate=1364.0kbits/s speed=0.207x    frame= 5217 fps= 13 q=31.0 size=   14336kB time=00:01:26.20 bitrate=1362.4kbits/s speed=0.207x    frame= 5223 fps= 13 q=31.0 size=   14336kB time=00:01:26.30 bitrate=1360.8kbits/s speed=0.207x    frame= 5229 fps= 13 q=31.0 size=   14336kB time=00:01:26.40 bitrate=1359.3kbits/s speed=0.207x    frame= 5235 fps= 13 q=31.0 size=   14592kB time=00:01:26.50 bitrate=1381.9kbits/s speed=0.207x    frame= 5241 fps= 13 q=31.0 size=   14592kB time=00:01:26.60 bitrate=1380.3kbits/s speed=0.207x    frame= 5247 fps= 13 q=31.0 size=   14592kB time=00:01:26.70 bitrate=1378.8kbits/s speed=0.207x    frame= 5253 fps= 13 q=31.0 size=   14592kB time=00:01:26.80 bitrate=1377.2kbits/s speed=0.207x    frame= 5259 fps= 13 q=31.0 size=   14592kB time=00:01:26.90 bitrate=1375.6kbits/s speed=0.207x    frame= 5265 fps= 13 q=31.0 size=   14592kB time=00:01:27.00 bitrate=1374.0kbits/s speed=0.207x    frame= 5271 fps= 13 q=31.0 size=   14592kB time=00:01:27.10 bitrate=1372.4kbits/s speed=0.207x    frame= 5277 fps= 13 q=31.0 size=   14592kB time=00:01:27.20 bitrate=1370.8kbits/s speed=0.207x    frame= 5283 fps= 13 q=31.0 size=   14592kB time=00:01:27.30 bitrate=1369.3kbits/s speed=0.207x    frame= 5288 fps= 13 q=31.0 size=   14592kB time=00:01:27.38 bitrate=1368.0kbits/s speed=0.207x    frame= 5294 fps= 13 q=31.0 size=   14592kB time=00:01:27.48 bitrate=1366.4kbits/s speed=0.207x    frame= 5300 fps= 13 q=31.0 size=   14848kB time=00:01:27.58 bitrate=1388.8kbits/s speed=0.207x    frame= 5306 fps= 13 q=31.0 size=   14848kB time=00:01:27.68 bitrate=1387.2kbits/s speed=0.207x    frame= 5312 fps= 13 q=31.0 size=   14848kB time=00:01:27.78 bitrate=1385.6kbits/s speed=0.207x    frame= 5318 fps= 13 q=31.0 size=   14848kB time=00:01:27.88 bitrate=1384.1kbits/s speed=0.207x    frame= 5324 fps= 13 q=31.0 size=   14848kB time=00:01:27.98 bitrate=1382.5kbits/s speed=0.207x    frame= 5331 fps= 13 q=31.0 size=   14848kB time=00:01:28.10 bitrate=1380.6kbits/s speed=0.207x    frame= 5337 fps= 13 q=31.0 size=   14848kB time=00:01:28.20 bitrate=1379.1kbits/s speed=0.207x    frame= 5343 fps= 13 q=31.0 size=   14848kB time=00:01:28.30 bitrate=1377.5kbits/s speed=0.207x    frame= 5351 fps= 13 q=31.0 size=   14848kB time=00:01:28.43 bitrate=1375.4kbits/s speed=0.207x    frame= 5357 fps= 13 q=31.0 size=   14848kB time=00:01:28.53 bitrate=1373.9kbits/s speed=0.207x    frame= 5364 fps= 13 q=31.0 size=   14848kB time=00:01:28.65 bitrate=1372.1kbits/s speed=0.207x    frame= 5371 fps= 13 q=31.0 size=   14848kB time=00:01:28.76 bitrate=1370.3kbits/s speed=0.207x    frame= 5378 fps= 13 q=31.0 size=   14848kB time=00:01:28.88 bitrate=1368.5kbits/s speed=0.207x    frame= 5383 fps= 13 q=31.0 size=   14848kB time=00:01:28.96 bitrate=1367.2kbits/s speed=0.207x    frame= 5389 fps= 12 q=31.0 size=   14848kB time=00:01:29.06 bitrate=1365.7kbits/s speed=0.207x    frame= 5395 fps= 12 q=31.0 size=   14848kB time=00:01:29.16 bitrate=1364.1kbits/s speed=0.207x    frame= 5401 fps= 12 q=31.0 size=   14848kB time=00:01:29.26 bitrate=1362.6kbits/s speed=0.207x    frame= 5407 fps= 12 q=31.0 size=   14848kB time=00:01:29.36 bitrate=1361.1kbits/s speed=0.206x    frame= 5413 fps= 12 q=31.0 size=   15104kB time=00:01:29.46 bitrate=1383.0kbits/s speed=0.206x    frame= 5419 fps= 12 q=31.0 size=   15104kB time=00:01:29.56 bitrate=1381.5kbits/s speed=0.206x    frame= 5426 fps= 12 q=31.0 size=   15104kB time=00:01:29.68 bitrate=1379.7kbits/s speed=0.206x    frame= 5430 fps= 12 q=31.0 size=   15104kB time=00:01:29.75 bitrate=1378.6kbits/s speed=0.206x    frame= 5436 fps= 12 q=31.0 size=   15104kB time=00:01:29.85 bitrate=1377.1kbits/s speed=0.206x    frame= 5442 fps= 12 q=31.0 size=   15104kB time=00:01:29.95 bitrate=1375.6kbits/s speed=0.206x    frame= 5448 fps= 12 q=31.0 size=   15104kB time=00:01:30.05 bitrate=1374.0kbits/s speed=0.206x    frame= 5454 fps= 12 q=31.0 size=   15104kB time=00:01:30.15 bitrate=1372.5kbits/s speed=0.206x    frame= 5459 fps= 12 q=31.0 size=   15104kB time=00:01:30.23 bitrate=1371.2kbits/s speed=0.206x    frame= 5465 fps= 12 q=31.0 size=   15360kB time=00:01:30.33 bitrate=1392.9kbits/s speed=0.206x    frame= 5470 fps= 12 q=31.0 size=   15360kB time=00:01:30.41 bitrate=1391.7kbits/s speed=0.206x    frame= 5475 fps= 12 q=31.0 size=   15360kB time=00:01:30.50 bitrate=1390.4kbits/s speed=0.206x    frame= 5481 fps= 12 q=31.0 size=   15360kB time=00:01:30.60 bitrate=1388.8kbits/s speed=0.206x    frame= 5487 fps= 12 q=31.0 size=   15360kB time=00:01:30.70 bitrate=1387.3kbits/s speed=0.206x    frame= 5493 fps= 12 q=31.0 size=   15360kB time=00:01:30.80 bitrate=1385.8kbits/s speed=0.206x    frame= 5499 fps= 12 q=31.0 size=   15360kB time=00:01:30.90 bitrate=1384.3kbits/s speed=0.206x    frame= 5505 fps= 12 q=31.0 size=   15360kB time=00:01:31.00 bitrate=1382.7kbits/s speed=0.206x    frame= 5511 fps= 12 q=31.0 size=   15616kB time=00:01:31.10 bitrate=1404.2kbits/s speed=0.206x    frame= 5517 fps= 12 q=31.0 size=   15616kB time=00:01:31.20 bitrate=1402.7kbits/s speed=0.206x    frame= 5523 fps= 12 q=31.0 size=   15616kB time=00:01:31.30 bitrate=1401.2kbits/s speed=0.206x    frame= 5529 fps= 12 q=31.0 size=   15616kB time=00:01:31.40 bitrate=1399.6kbits/s speed=0.206x    frame= 5535 fps= 12 q=31.0 size=   15616kB time=00:01:31.50 bitrate=1398.1kbits/s speed=0.206x    frame= 5541 fps= 12 q=31.0 size=   15616kB time=00:01:31.60 bitrate=1396.6kbits/s speed=0.206x    frame= 5547 fps= 12 q=31.0 size=   15616kB time=00:01:31.70 bitrate=1395.1kbits/s speed=0.206x    frame= 5553 fps= 12 q=31.0 size=   15616kB time=00:01:31.80 bitrate=1393.5kbits/s speed=0.206x    frame= 5559 fps= 12 q=31.0 size=   15616kB time=00:01:31.90 bitrate=1392.0kbits/s speed=0.205x    frame= 5565 fps= 12 q=31.0 size=   15872kB time=00:01:32.00 bitrate=1413.3kbits/s speed=0.205x    frame= 5571 fps= 12 q=31.0 size=   15872kB time=00:01:32.10 bitrate=1411.8kbits/s speed=0.205x    frame= 5577 fps= 12 q=31.0 size=   15872kB time=00:01:32.20 bitrate=1410.2kbits/s speed=0.205x    frame= 5583 fps= 12 q=31.0 size=   15872kB time=00:01:32.30 bitrate=1408.7kbits/s speed=0.205x    frame= 5589 fps= 12 q=31.0 size=   15872kB time=00:01:32.40 bitrate=1407.2kbits/s speed=0.205x    frame= 5595 fps= 12 q=31.0 size=   15872kB time=00:01:32.50 bitrate=1405.7kbits/s speed=0.205x    frame= 5601 fps= 12 q=31.0 size=   15872kB time=00:01:32.60 bitrate=1404.1kbits/s speed=0.205x    frame= 5607 fps= 12 q=31.0 size=   15872kB time=00:01:32.70 bitrate=1402.6kbits/s speed=0.205x    frame= 5613 fps= 12 q=31.0 size=   15872kB time=00:01:32.80 bitrate=1401.1kbits/s speed=0.205x    frame= 5619 fps= 12 q=31.0 size=   15872kB time=00:01:32.90 bitrate=1399.6kbits/s speed=0.205x    frame= 5625 fps= 12 q=31.0 size=   15872kB time=00:01:33.00 bitrate=1398.1kbits/s speed=0.205x    frame= 5631 fps= 12 q=31.0 size=   15872kB time=00:01:33.10 bitrate=1396.6kbits/s speed=0.205x    frame= 5636 fps= 12 q=31.0 size=   15872kB time=00:01:33.18 bitrate=1395.4kbits/s speed=0.205x    frame= 5641 fps= 12 q=31.0 size=   16128kB time=00:01:33.26 bitrate=1416.6kbits/s speed=0.205x    frame= 5646 fps= 12 q=31.0 size=   16128kB time=00:01:33.35 bitrate=1415.3kbits/s speed=0.205x    frame= 5652 fps= 12 q=31.0 size=   16128kB time=00:01:33.45 bitrate=1413.8kbits/s speed=0.205x    frame= 5657 fps= 12 q=31.0 size=   16128kB time=00:01:33.53 bitrate=1412.6kbits/s speed=0.205x    frame= 5663 fps= 12 q=31.0 size=   16128kB time=00:01:33.63 bitrate=1411.0kbits/s speed=0.205x    frame= 5669 fps= 12 q=31.0 size=   16128kB time=00:01:33.73 bitrate=1409.5kbits/s speed=0.205x    frame= 5674 fps= 12 q=31.0 size=   16128kB time=00:01:33.81 bitrate=1408.3kbits/s speed=0.205x    frame= 5679 fps= 12 q=31.0 size=   16384kB time=00:01:33.90 bitrate=1429.4kbits/s speed=0.205x    frame= 5685 fps= 12 q=31.0 size=   16384kB time=00:01:34.00 bitrate=1427.9kbits/s speed=0.205x    frame= 5691 fps= 12 q=31.0 size=   16384kB time=00:01:34.10 bitrate=1426.3kbits/s speed=0.205x    frame= 5696 fps= 12 q=31.0 size=   16384kB time=00:01:34.18 bitrate=1425.1kbits/s speed=0.205x    frame= 5702 fps= 12 q=31.0 size=   16384kB time=00:01:34.28 bitrate=1423.6kbits/s speed=0.205x    frame= 5708 fps= 12 q=31.0 size=   16384kB time=00:01:34.38 bitrate=1422.1kbits/s speed=0.205x    frame= 5715 fps= 12 q=31.0 size=   16384kB time=00:01:34.50 bitrate=1420.3kbits/s speed=0.205x    frame= 5720 fps= 12 q=31.0 size=   16384kB time=00:01:34.58 bitrate=1419.0kbits/s speed=0.204x    frame= 5726 fps= 12 q=31.0 size=   16640kB time=00:01:34.68 bitrate=1439.7kbits/s speed=0.204x    frame= 5732 fps= 12 q=31.0 size=   16640kB time=00:01:34.78 bitrate=1438.2kbits/s speed=0.204x    frame= 5737 fps= 12 q=31.0 size=   16640kB time=00:01:34.86 bitrate=1436.9kbits/s speed=0.204x    frame= 5743 fps= 12 q=31.0 size=   16640kB time=00:01:34.96 bitrate=1435.4kbits/s speed=0.204x    frame= 5749 fps= 12 q=31.0 size=   16640kB time=00:01:35.06 bitrate=1433.9kbits/s speed=0.204x    frame= 5755 fps= 12 q=31.0 size=   16640kB time=00:01:35.16 bitrate=1432.4kbits/s speed=0.204x    frame= 5761 fps= 12 q=31.0 size=   16640kB time=00:01:35.26 bitrate=1430.9kbits/s speed=0.204x    frame= 5767 fps= 12 q=31.0 size=   16640kB time=00:01:35.36 bitrate=1429.4kbits/s speed=0.204x    frame= 5773 fps= 12 q=31.0 size=   16896kB time=00:01:35.46 bitrate=1449.8kbits/s speed=0.204x    frame= 5779 fps= 12 q=31.0 size=   16896kB time=00:01:35.56 bitrate=1448.3kbits/s speed=0.204x    frame= 5785 fps= 12 q=31.0 size=   16896kB time=00:01:35.66 bitrate=1446.8kbits/s speed=0.204x    frame= 5790 fps= 12 q=31.0 size=   16896kB time=00:01:35.75 bitrate=1445.6kbits/s speed=0.204x    frame= 5796 fps= 12 q=31.0 size=   16896kB time=00:01:35.85 bitrate=1444.1kbits/s speed=0.204x    frame= 5802 fps= 12 q=31.0 size=   16896kB time=00:01:35.95 bitrate=1442.5kbits/s speed=0.204x    frame= 5808 fps= 12 q=31.0 size=   16896kB time=00:01:36.05 bitrate=1441.0kbits/s speed=0.204x    frame= 5814 fps= 12 q=31.0 size=   16896kB time=00:01:36.15 bitrate=1439.5kbits/s speed=0.204x    frame= 5820 fps= 12 q=31.0 size=   16896kB time=00:01:36.25 bitrate=1438.1kbits/s speed=0.204x    frame= 5826 fps= 12 q=31.0 size=   17152kB time=00:01:36.35 bitrate=1458.3kbits/s speed=0.204x    frame= 5832 fps= 12 q=31.0 size=   17152kB time=00:01:36.45 bitrate=1456.8kbits/s speed=0.204x    frame= 5838 fps= 12 q=31.0 size=   17152kB time=00:01:36.55 bitrate=1455.3kbits/s speed=0.204x    frame= 5844 fps= 12 q=31.0 size=   17152kB time=00:01:36.65 bitrate=1453.8kbits/s speed=0.204x    frame= 5850 fps= 12 q=31.0 size=   17152kB time=00:01:36.75 bitrate=1452.3kbits/s speed=0.204x    frame= 5856 fps= 12 q=31.0 size=   17152kB time=00:01:36.85 bitrate=1450.8kbits/s speed=0.204x    frame= 5862 fps= 12 q=31.0 size=   17152kB time=00:01:36.95 bitrate=1449.3kbits/s speed=0.204x    frame= 5868 fps= 12 q=31.0 size=   17152kB time=00:01:37.05 bitrate=1447.8kbits/s speed=0.204x    frame= 5874 fps= 12 q=31.0 size=   17152kB time=00:01:37.15 bitrate=1446.3kbits/s speed=0.204x    frame= 5880 fps= 12 q=31.0 size=   17152kB time=00:01:37.25 bitrate=1444.8kbits/s speed=0.204x    frame= 5886 fps= 12 q=31.0 size=   17152kB time=00:01:37.35 bitrate=1443.3kbits/s speed=0.204x    frame= 5893 fps= 12 q=31.0 size=   17152kB time=00:01:37.46 bitrate=1441.6kbits/s speed=0.204x    frame= 5898 fps= 12 q=31.0 size=   17152kB time=00:01:37.55 bitrate=1440.4kbits/s speed=0.204x    frame= 5905 fps= 12 q=31.0 size=   17408kB time=00:01:37.66 bitrate=1460.1kbits/s speed=0.204x    frame= 5911 fps= 12 q=31.0 size=   17408kB time=00:01:37.76 bitrate=1458.6kbits/s speed=0.204x    frame= 5918 fps= 12 q=31.0 size=   17408kB time=00:01:37.88 bitrate=1456.9kbits/s speed=0.204x    frame= 5923 fps= 12 q=31.0 size=   17408kB time=00:01:37.96 bitrate=1455.7kbits/s speed=0.204x    frame= 5929 fps= 12 q=31.0 size=   17408kB time=00:01:38.06 bitrate=1454.2kbits/s speed=0.204x    frame= 5935 fps= 12 q=31.0 size=   17408kB time=00:01:38.16 bitrate=1452.7kbits/s speed=0.204x    frame= 5941 fps= 12 q=31.0 size=   17408kB time=00:01:38.26 bitrate=1451.2kbits/s speed=0.204x    frame= 5947 fps= 12 q=31.0 size=   17408kB time=00:01:38.36 bitrate=1449.7kbits/s speed=0.204x    frame= 5953 fps= 12 q=31.0 size=   17408kB time=00:01:38.46 bitrate=1448.3kbits/s speed=0.204x    frame= 5959 fps= 12 q=31.0 size=   17408kB time=00:01:38.56 bitrate=1446.8kbits/s speed=0.204x    frame= 5965 fps= 12 q=31.0 size=   17408kB time=00:01:38.66 bitrate=1445.3kbits/s speed=0.204x    frame= 5971 fps= 12 q=31.0 size=   17408kB time=00:01:38.76 bitrate=1443.9kbits/s speed=0.204x    frame= 5977 fps= 12 q=31.0 size=   17408kB time=00:01:38.86 bitrate=1442.4kbits/s speed=0.204x    frame= 5983 fps= 12 q=31.0 size=   17408kB time=00:01:38.96 bitrate=1441.0kbits/s speed=0.204x    frame= 5989 fps= 12 q=31.0 size=   17408kB time=00:01:39.06 bitrate=1439.5kbits/s speed=0.203x    frame= 5995 fps= 12 q=31.0 size=   17408kB time=00:01:39.16 bitrate=1438.1kbits/s speed=0.203x    frame= 6001 fps= 12 q=31.0 size=   17664kB time=00:01:39.26 bitrate=1457.7kbits/s speed=0.203x    frame= 6007 fps= 12 q=31.0 size=   17664kB time=00:01:39.36 bitrate=1456.3kbits/s speed=0.203x    frame= 6013 fps= 12 q=31.0 size=   17664kB time=00:01:39.46 bitrate=1454.8kbits/s speed=0.203x    frame= 6019 fps= 12 q=31.0 size=   17664kB time=00:01:39.56 bitrate=1453.3kbits/s speed=0.203x    frame= 6025 fps= 12 q=31.0 size=   17664kB time=00:01:39.66 bitrate=1451.9kbits/s speed=0.203x    frame= 6030 fps= 12 q=31.0 size=   17664kB time=00:01:39.75 bitrate=1450.7kbits/s speed=0.203x    frame= 6036 fps= 12 q=31.0 size=   17664kB time=00:01:39.85 bitrate=1449.2kbits/s speed=0.203x    frame= 6042 fps= 12 q=31.0 size=   17664kB time=00:01:39.95 bitrate=1447.8kbits/s speed=0.203x    frame= 6049 fps= 12 q=31.0 size=   17664kB time=00:01:40.06 bitrate=1446.1kbits/s speed=0.203x    frame= 6054 fps= 12 q=31.0 size=   17664kB time=00:01:40.15 bitrate=1444.9kbits/s speed=0.203x    frame= 6060 fps= 12 q=31.0 size=   17664kB time=00:01:40.25 bitrate=1443.4kbits/s speed=0.203x    frame= 6066 fps= 12 q=31.0 size=   17664kB time=00:01:40.35 bitrate=1442.0kbits/s speed=0.203x    frame= 6074 fps= 12 q=31.0 size=   17664kB time=00:01:40.48 bitrate=1440.1kbits/s speed=0.203x    frame= 6080 fps= 12 q=31.0 size=   17664kB time=00:01:40.58 bitrate=1438.6kbits/s speed=0.203x    frame= 6087 fps= 12 q=31.0 size=   17664kB time=00:01:40.70 bitrate=1437.0kbits/s speed=0.203x    frame= 6094 fps= 12 q=31.0 size=   17664kB time=00:01:40.81 bitrate=1435.3kbits/s speed=0.203x    frame= 6101 fps= 12 q=31.0 size=   17664kB time=00:01:40.93 bitrate=1433.7kbits/s speed=0.203x    frame= 6108 fps= 12 q=31.0 size=   17920kB time=00:01:41.05 bitrate=1452.8kbits/s speed=0.203x    frame= 6116 fps= 12 q=31.0 size=   17920kB time=00:01:41.18 bitrate=1450.8kbits/s speed=0.203x    frame= 6121 fps= 12 q=31.0 size=   17920kB time=00:01:41.26 bitrate=1449.6kbits/s speed=0.203x    frame= 6130 fps= 12 q=31.0 size=   17920kB time=00:01:41.41 bitrate=1447.5kbits/s speed=0.203x    frame= 6137 fps= 12 q=31.0 size=   17920kB time=00:01:41.53 bitrate=1445.8kbits/s speed=0.203x    frame= 6144 fps= 12 q=31.0 size=   17920kB time=00:01:41.65 bitrate=1444.2kbits/s speed=0.203x    frame= 6152 fps= 12 q=31.0 size=   17920kB time=00:01:41.78 bitrate=1442.3kbits/s speed=0.203x    frame= 6158 fps= 12 q=31.0 size=   17920kB time=00:01:41.88 bitrate=1440.9kbits/s speed=0.203x    frame= 6164 fps= 12 q=31.0 size=   17920kB time=00:01:41.98 bitrate=1439.5kbits/s speed=0.203x    frame= 6171 fps= 12 q=31.0 size=   17920kB time=00:01:42.10 bitrate=1437.8kbits/s speed=0.203x    frame= 6177 fps= 12 q=31.0 size=   17920kB time=00:01:42.20 bitrate=1436.4kbits/s speed=0.203x    frame= 6184 fps= 12 q=31.0 size=   17920kB time=00:01:42.31 bitrate=1434.8kbits/s speed=0.203x    frame= 6190 fps= 12 q=31.0 size=   17920kB time=00:01:42.41 bitrate=1433.4kbits/s speed=0.203x    frame= 6197 fps= 12 q=31.0 size=   17920kB time=00:01:42.53 bitrate=1431.7kbits/s speed=0.203x    frame= 6204 fps= 12 q=31.0 size=   17920kB time=00:01:42.65 bitrate=1430.1kbits/s speed=0.203x    frame= 6211 fps= 12 q=31.0 size=   17920kB time=00:01:42.76 bitrate=1428.5kbits/s speed=0.203x    frame= 6218 fps= 12 q=31.0 size=   17920kB time=00:01:42.88 bitrate=1426.9kbits/s speed=0.203x    frame= 6225 fps= 12 q=31.0 size=   17920kB time=00:01:43.00 bitrate=1425.3kbits/s speed=0.203x    frame= 6232 fps= 12 q=31.0 size=   17920kB time=00:01:43.11 bitrate=1423.6kbits/s speed=0.203x    frame= 6239 fps= 12 q=31.0 size=   17920kB time=00:01:43.23 bitrate=1422.0kbits/s speed=0.203x    frame= 6246 fps= 12 q=31.0 size=   17920kB time=00:01:43.35 bitrate=1420.4kbits/s speed=0.203x    frame= 6253 fps= 12 q=31.0 size=   17920kB time=00:01:43.46 bitrate=1418.8kbits/s speed=0.203x    frame= 6259 fps= 12 q=31.0 size=   17920kB time=00:01:43.56 bitrate=1417.5kbits/s speed=0.203x    frame= 6266 fps= 12 q=29.0 size=   17920kB time=00:01:43.68 bitrate=1415.9kbits/s speed=0.203x    frame= 6273 fps= 12 q=31.0 size=   17920kB time=00:01:43.80 bitrate=1414.3kbits/s speed=0.203x    frame= 6280 fps= 12 q=31.0 size=   17920kB time=00:01:43.91 bitrate=1412.7kbits/s speed=0.204x    frame= 6288 fps= 12 q=31.0 size=   17920kB time=00:01:44.05 bitrate=1410.9kbits/s speed=0.204x    frame= 6296 fps= 12 q=31.0 size=   17920kB time=00:01:44.18 bitrate=1409.1kbits/s speed=0.204x    frame= 6303 fps= 12 q=31.0 size=   17920kB time=00:01:44.30 bitrate=1407.5kbits/s speed=0.204x    frame= 6309 fps= 12 q=31.0 size=   17920kB time=00:01:44.40 bitrate=1406.1kbits/s speed=0.204x    frame= 6315 fps= 12 q=31.0 size=   17920kB time=00:01:44.50 bitrate=1404.8kbits/s speed=0.204x    frame= 6322 fps= 12 q=31.0 size=   17920kB time=00:01:44.61 bitrate=1403.2kbits/s speed=0.204x    frame= 6328 fps= 12 q=31.0 size=   17920kB time=00:01:44.71 bitrate=1401.9kbits/s speed=0.204x    frame= 6335 fps= 12 q=31.0 size=   17920kB time=00:01:44.83 bitrate=1400.3kbits/s speed=0.204x    frame= 6342 fps= 12 q=31.0 size=   17920kB time=00:01:44.95 bitrate=1398.8kbits/s speed=0.204x    frame= 6348 fps= 12 q=31.0 size=   17920kB time=00:01:45.05 bitrate=1397.4kbits/s speed=0.204x    frame= 6355 fps= 12 q=31.0 size=   17920kB time=00:01:45.16 bitrate=1395.9kbits/s speed=0.204x    frame= 6361 fps= 12 q=31.0 size=   17920kB time=00:01:45.26 bitrate=1394.6kbits/s speed=0.204x    frame= 6368 fps= 12 q=31.0 size=   17920kB time=00:01:45.38 bitrate=1393.0kbits/s speed=0.204x    frame= 6375 fps= 12 q=31.0 size=   17920kB time=00:01:45.50 bitrate=1391.5kbits/s speed=0.204x    frame= 6382 fps= 12 q=31.0 size=   17920kB time=00:01:45.61 bitrate=1389.9kbits/s speed=0.204x    frame= 6388 fps= 12 q=31.0 size=   17920kB time=00:01:45.71 bitrate=1388.6kbits/s speed=0.204x    frame= 6394 fps= 12 q=31.0 size=   17920kB time=00:01:45.81 bitrate=1387.3kbits/s speed=0.204x    frame= 6402 fps= 12 q=31.0 size=   17920kB time=00:01:45.95 bitrate=1385.6kbits/s speed=0.204x    frame= 6411 fps= 12 q=31.0 size=   17920kB time=00:01:46.10 bitrate=1383.6kbits/s speed=0.204x    frame= 6420 fps= 12 q=31.0 size=   17920kB time=00:01:46.25 bitrate=1381.7kbits/s speed=0.204x    frame= 6426 fps= 12 q=-1.0 Lsize=   18063kB time=00:01:47.08 bitrate=1381.8kbits/s speed=0.205x    
video:18036kB audio:0kB subtitle:0kB other streams:0kB global headers:0kB muxing overhead: 0.145654%
[libx264 @ 0x55d9dacdb740] frame I:26    Avg QP:21.11  size: 32045
[libx264 @ 0x55d9dacdb740] frame P:6400  Avg QP:25.85  size:  2756
[libx264 @ 0x55d9dacdb740] mb I  I16..4: 30.5% 60.7%  8.8%
[libx264 @ 0x55d9dacdb740] mb P  I16..4:  0.9%  0.5%  0.1%  P16..4:  8.3%  1.0%  1.1%  0.0%  0.0%    skip:88.0%
[libx264 @ 0x55d9dacdb740] 8x8 transform intra:40.4% inter:78.2%
[libx264 @ 0x55d9dacdb740] coded y,uvDC,uvAC intra: 9.3% 15.8% 3.7% inter: 1.0% 2.4% 0.1%
[libx264 @ 0x55d9dacdb740] i16 v,h,dc,p: 11% 30%  6% 53%
[libx264 @ 0x55d9dacdb740] i8 v,h,dc,ddl,ddr,vr,hd,vl,hu: 15% 10% 67%  1%  1%  1%  1%  1%  1%
[libx264 @ 0x55d9dacdb740] i4 v,h,dc,ddl,ddr,vr,hd,vl,hu: 28% 20% 28%  5%  4%  4%  4%  5%  3%
[libx264 @ 0x55d9dacdb740] i8c dc,h,v,p: 81% 10%  8%  1%
[libx264 @ 0x55d9dacdb740] Weighted P-Frames: Y:0.0% UV:0.0%
[libx264 @ 0x55d9dacdb740] ref P L0: 60.8% 19.2% 13.5%  6.5%
[libx264 @ 0x55d9dacdb740] kb/s:1379.53
